<svg width="787" height="605" viewBox="0 0 787 605" fill="none" xmlns="http://www.w3.org/2000/svg">
<path d="M458.321 132.882C473.068 132.882 485.022 120.928 485.022 106.182C485.022 91.4352 473.068 79.4809 458.321 79.4809C443.575 79.4809 431.621 91.4352 431.621 106.182C431.621 120.928 443.575 132.882 458.321 132.882Z" fill="#F2F2F2"/>
<path d="M665.448 529.152C705.135 498.923 724.091 448.126 712.224 399.67C711.929 398.466 711.618 397.264 711.29 396.066C703.423 367.302 683.959 339.965 655.59 330.774C631.771 323.058 605.771 328.992 580.921 325.923C532.139 319.899 494.32 280.429 467.71 239.104C441.099 197.778 420.648 151.52 385.288 117.38C327.003 61.1042 231.926 48.9881 159.661 85.6191C87.3967 122.25 41.3649 203.519 43.328 284.514C45.2912 365.509 93.3743 442.946 163.203 484.031C188.855 499.124 218.524 509.817 248.051 506.075C273.671 502.829 296.95 489.063 322.45 484.976C362.541 478.55 402.377 496.676 437.052 517.799C471.728 538.922 505.223 563.959 544.627 573.752C582.888 583.26 630.29 555.93 665.448 529.152Z" fill="#F2F2F2"/>
<path d="M608.426 87.3199C607.556 86.7399 606.676 86.1899 605.806 85.6299C580.657 69.5457 553.701 56.4791 525.496 46.6999L518.956 136.92H477.496V33.5299C474.886 32.9899 472.256 32.4799 469.626 31.9999V136.92H420.356C393.232 136.92 367.219 126.145 348.04 106.966C328.861 87.7865 318.086 61.7737 318.086 34.65V34.65C315.446 35.22 312.826 35.83 310.206 36.48V136.92H270.076L263.846 50.89C234.861 62.0062 207.343 76.6247 181.906 94.42C181.466 94.72 181.026 95.03 180.596 95.33C178.386 96.88 176.206 98.46 174.036 100.06V444.25H292.306L290.216 415.3L278.716 256.35H510.306L498.806 415.3L496.716 444.25H613.676V90.8C611.936 89.62 610.186 88.46 608.426 87.3199ZM310.206 230.1H276.816L270.646 144.8H310.206V230.1ZM469.626 230.1H413.546V228.41C413.546 227.598 413.386 226.793 413.075 226.043C412.763 225.292 412.307 224.61 411.732 224.036C411.157 223.462 410.475 223.007 409.724 222.697C408.973 222.387 408.168 222.229 407.356 222.23H382.976C382.164 222.23 381.361 222.389 380.611 222.7C379.861 223.01 379.179 223.465 378.605 224.039C378.031 224.613 377.576 225.295 377.266 226.045C376.955 226.795 376.796 227.598 376.796 228.41V230.1H318.086V144.8H469.626V230.1ZM477.496 230.1V144.8H518.386L512.216 230.1H477.496Z" fill="#D6D6DA"/>
<path d="M0 466.291C8.68725 476.584 18.0835 486.258 28.12 495.241L758.7 496.241C768.736 487.258 778.133 477.584 786.82 467.291L0 466.291Z" fill="#D6D6DA"/>
<path d="M495.43 373.591V459.295C495.431 460.387 495.865 461.435 496.637 462.207C497.41 462.979 498.457 463.414 499.549 463.414H626.553C627.646 463.414 628.693 462.979 629.465 462.207C630.237 461.435 630.672 460.387 630.673 459.295V373.591C630.67 372.5 630.235 371.454 629.463 370.683C628.691 369.912 627.645 369.478 626.553 369.477H499.549C498.458 369.478 497.412 369.912 496.639 370.683C495.867 371.454 495.433 372.5 495.43 373.591Z" fill="#D6D6DA"/>
<path d="M498.409 374.658V458.238C498.41 458.822 498.643 459.381 499.055 459.794C499.468 460.206 500.027 460.438 500.611 460.439H625.496C626.08 460.438 626.639 460.206 627.052 459.794C627.464 459.381 627.697 458.822 627.698 458.238V374.658C627.698 374.073 627.466 373.513 627.053 373.099C626.64 372.686 626.081 372.453 625.496 372.452H500.611C500.027 372.453 499.467 372.686 499.054 373.099C498.641 373.513 498.409 374.073 498.409 374.658Z" fill="#6366F1"/>
<path d="M492.774 476.01C493.006 476.302 493.302 476.537 493.639 476.698C493.975 476.859 494.344 476.942 494.717 476.94H630.709C631.081 476.939 631.448 476.856 631.784 476.696C632.119 476.536 632.415 476.303 632.649 476.014C632.884 475.725 633.051 475.387 633.138 475.026C633.226 474.664 633.232 474.288 633.155 473.924L631.044 463.897C630.957 463.488 630.768 463.107 630.496 462.79C630.224 462.472 629.877 462.228 629.486 462.079C629.203 461.968 628.902 461.911 628.598 461.912H496.82C496.516 461.911 496.215 461.968 495.932 462.079C495.541 462.228 495.194 462.472 494.922 462.79C494.65 463.107 494.461 463.488 494.374 463.897L492.263 473.924C492.188 474.288 492.195 474.664 492.283 475.025C492.371 475.385 492.539 475.722 492.774 476.01Z" fill="#4A4A4A"/>
<path d="M623.932 466.23H627.144C627.414 466.23 627.632 466.012 627.632 465.742V464.205C627.632 463.936 627.414 463.717 627.144 463.717H623.932C623.662 463.717 623.444 463.936 623.444 464.205V465.742C623.444 466.012 623.662 466.23 623.932 466.23Z" fill="#D6D6DA"/>
<path d="M615.555 466.23H618.767C619.037 466.23 619.255 466.012 619.255 465.742V464.205C619.255 463.936 619.037 463.717 618.767 463.717H615.555C615.285 463.717 615.067 463.936 615.067 464.205V465.742C615.067 466.012 615.285 466.23 615.555 466.23Z" fill="#D6D6DA"/>
<path d="M607.178 466.23H610.39C610.66 466.23 610.878 466.012 610.878 465.742V464.205C610.878 463.936 610.66 463.717 610.39 463.717H607.178C606.908 463.717 606.69 463.936 606.69 464.205V465.742C606.69 466.012 606.908 466.23 607.178 466.23Z" fill="#D6D6DA"/>
<path d="M598.801 466.23H602.013C602.283 466.23 602.501 466.012 602.501 465.742V464.205C602.501 463.936 602.283 463.717 602.013 463.717H598.801C598.531 463.717 598.313 463.936 598.313 464.205V465.742C598.313 466.012 598.531 466.23 598.801 466.23Z" fill="#D6D6DA"/>
<path d="M590.424 466.23H593.636C593.906 466.23 594.124 466.012 594.124 465.742V464.205C594.124 463.936 593.906 463.717 593.636 463.717H590.424C590.154 463.717 589.936 463.936 589.936 464.205V465.742C589.936 466.012 590.154 466.23 590.424 466.23Z" fill="#D6D6DA"/>
<path d="M582.047 466.23H585.259C585.529 466.23 585.747 466.012 585.747 465.742V464.205C585.747 463.936 585.529 463.717 585.259 463.717H582.047C581.777 463.717 581.559 463.936 581.559 464.205V465.742C581.559 466.012 581.777 466.23 582.047 466.23Z" fill="#D6D6DA"/>
<path d="M573.67 466.23H576.882C577.152 466.23 577.37 466.012 577.37 465.742V464.205C577.37 463.936 577.152 463.717 576.882 463.717H573.67C573.4 463.717 573.182 463.936 573.182 464.205V465.742C573.182 466.012 573.4 466.23 573.67 466.23Z" fill="#D6D6DA"/>
<path d="M565.293 466.23H568.505C568.775 466.23 568.993 466.012 568.993 465.742V464.205C568.993 463.936 568.775 463.717 568.505 463.717H565.293C565.023 463.717 564.805 463.936 564.805 464.205V465.742C564.805 466.012 565.023 466.23 565.293 466.23Z" fill="#D6D6DA"/>
<path d="M556.916 466.23H560.128C560.398 466.23 560.616 466.012 560.616 465.742V464.205C560.616 463.936 560.398 463.717 560.128 463.717H556.916C556.647 463.717 556.428 463.936 556.428 464.205V465.742C556.428 466.012 556.647 466.23 556.916 466.23Z" fill="#D6D6DA"/>
<path d="M548.539 466.23H551.751C552.021 466.23 552.24 466.012 552.24 465.742V464.205C552.24 463.936 552.021 463.717 551.751 463.717H548.539C548.27 463.717 548.051 463.936 548.051 464.205V465.742C548.051 466.012 548.27 466.23 548.539 466.23Z" fill="#D6D6DA"/>
<path d="M540.162 466.23H543.374C543.644 466.23 543.862 466.012 543.862 465.742V464.205C543.862 463.936 543.644 463.717 543.374 463.717H540.162C539.892 463.717 539.674 463.936 539.674 464.205V465.742C539.674 466.012 539.892 466.23 540.162 466.23Z" fill="#D6D6DA"/>
<path d="M531.785 466.23H534.997C535.267 466.23 535.485 466.012 535.485 465.742V464.205C535.485 463.936 535.267 463.717 534.997 463.717H531.785C531.516 463.717 531.297 463.936 531.297 464.205V465.742C531.297 466.012 531.516 466.23 531.785 466.23Z" fill="#D6D6DA"/>
<path d="M523.408 466.23H526.62C526.89 466.23 527.108 466.012 527.108 465.742V464.205C527.108 463.936 526.89 463.717 526.62 463.717H523.408C523.138 463.717 522.92 463.936 522.92 464.205V465.742C522.92 466.012 523.138 466.23 523.408 466.23Z" fill="#D6D6DA"/>
<path d="M515.031 466.23H518.243C518.513 466.23 518.731 466.012 518.731 465.742V464.205C518.731 463.936 518.513 463.717 518.243 463.717H515.031C514.762 463.717 514.543 463.936 514.543 464.205V465.742C514.543 466.012 514.762 466.23 515.031 466.23Z" fill="#D6D6DA"/>
<path d="M506.654 466.23H509.866C510.136 466.23 510.354 466.012 510.354 465.742V464.205C510.354 463.936 510.136 463.717 509.866 463.717H506.654C506.385 463.717 506.166 463.936 506.166 464.205V465.742C506.166 466.012 506.385 466.23 506.654 466.23Z" fill="#D6D6DA"/>
<path d="M498.277 466.23H501.489C501.759 466.23 501.978 466.012 501.978 465.742V464.205C501.978 463.936 501.759 463.717 501.489 463.717H498.277C498.008 463.717 497.789 463.936 497.789 464.205V465.742C497.789 466.012 498.008 466.23 498.277 466.23Z" fill="#D6D6DA"/>
<path d="M624.031 470.419H627.243C627.513 470.419 627.731 470.2 627.731 469.931V468.394C627.731 468.124 627.513 467.906 627.243 467.906H624.031C623.761 467.906 623.543 468.124 623.543 468.394V469.931C623.543 470.2 623.761 470.419 624.031 470.419Z" fill="#D6D6DA"/>
<path d="M615.654 470.419H618.866C619.136 470.419 619.354 470.2 619.354 469.931V468.394C619.354 468.124 619.136 467.906 618.866 467.906H615.654C615.384 467.906 615.166 468.124 615.166 468.394V469.931C615.166 470.2 615.384 470.419 615.654 470.419Z" fill="#D6D6DA"/>
<path d="M607.277 470.419H610.489C610.759 470.419 610.977 470.2 610.977 469.931V468.394C610.977 468.124 610.759 467.906 610.489 467.906H607.277C607.007 467.906 606.789 468.124 606.789 468.394V469.931C606.789 470.2 607.007 470.419 607.277 470.419Z" fill="#D6D6DA"/>
<path d="M598.9 470.419H602.112C602.382 470.419 602.6 470.2 602.6 469.931V468.394C602.6 468.124 602.382 467.906 602.112 467.906H598.9C598.63 467.906 598.412 468.124 598.412 468.394V469.931C598.412 470.2 598.63 470.419 598.9 470.419Z" fill="#D6D6DA"/>
<path d="M590.523 470.419H593.735C594.005 470.419 594.223 470.2 594.223 469.931V468.394C594.223 468.124 594.005 467.906 593.735 467.906H590.523C590.253 467.906 590.035 468.124 590.035 468.394V469.931C590.035 470.2 590.253 470.419 590.523 470.419Z" fill="#D6D6DA"/>
<path d="M582.146 470.419H585.358C585.628 470.419 585.846 470.2 585.846 469.931V468.394C585.846 468.124 585.628 467.906 585.358 467.906H582.146C581.876 467.906 581.658 468.124 581.658 468.394V469.931C581.658 470.2 581.876 470.419 582.146 470.419Z" fill="#D6D6DA"/>
<path d="M573.769 470.419H576.981C577.251 470.419 577.469 470.2 577.469 469.931V468.394C577.469 468.124 577.251 467.906 576.981 467.906H573.769C573.499 467.906 573.281 468.124 573.281 468.394V469.931C573.281 470.2 573.499 470.419 573.769 470.419Z" fill="#D6D6DA"/>
<path d="M565.392 470.419H568.604C568.874 470.419 569.092 470.2 569.092 469.931V468.394C569.092 468.124 568.874 467.906 568.604 467.906H565.392C565.122 467.906 564.904 468.124 564.904 468.394V469.931C564.904 470.2 565.122 470.419 565.392 470.419Z" fill="#D6D6DA"/>
<path d="M557.015 470.419H560.227C560.497 470.419 560.715 470.2 560.715 469.931V468.394C560.715 468.124 560.497 467.906 560.227 467.906H557.015C556.745 467.906 556.527 468.124 556.527 468.394V469.931C556.527 470.2 556.745 470.419 557.015 470.419Z" fill="#D6D6DA"/>
<path d="M548.638 470.419H551.85C552.12 470.419 552.338 470.2 552.338 469.931V468.394C552.338 468.124 552.12 467.906 551.85 467.906H548.638C548.368 467.906 548.15 468.124 548.15 468.394V469.931C548.15 470.2 548.368 470.419 548.638 470.419Z" fill="#D6D6DA"/>
<path d="M540.261 470.419H543.473C543.743 470.419 543.961 470.2 543.961 469.931V468.394C543.961 468.124 543.743 467.906 543.473 467.906H540.261C539.992 467.906 539.773 468.124 539.773 468.394V469.931C539.773 470.2 539.992 470.419 540.261 470.419Z" fill="#D6D6DA"/>
<path d="M531.884 470.419H535.096C535.366 470.419 535.584 470.2 535.584 469.931V468.394C535.584 468.124 535.366 467.906 535.096 467.906H531.884C531.615 467.906 531.396 468.124 531.396 468.394V469.931C531.396 470.2 531.615 470.419 531.884 470.419Z" fill="#D6D6DA"/>
<path d="M523.507 470.419H526.719C526.989 470.419 527.208 470.2 527.208 469.931V468.394C527.208 468.124 526.989 467.906 526.719 467.906H523.507C523.238 467.906 523.019 468.124 523.019 468.394V469.931C523.019 470.2 523.238 470.419 523.507 470.419Z" fill="#D6D6DA"/>
<path d="M515.13 470.419H518.342C518.612 470.419 518.831 470.2 518.831 469.931V468.394C518.831 468.124 518.612 467.906 518.342 467.906H515.13C514.861 467.906 514.642 468.124 514.642 468.394V469.931C514.642 470.2 514.861 470.419 515.13 470.419Z" fill="#D6D6DA"/>
<path d="M506.753 470.419H509.965C510.235 470.419 510.453 470.2 510.453 469.931V468.394C510.453 468.124 510.235 467.906 509.965 467.906H506.753C506.484 467.906 506.265 468.124 506.265 468.394V469.931C506.265 470.2 506.484 470.419 506.753 470.419Z" fill="#D6D6DA"/>
<path d="M498.376 470.419H501.588C501.858 470.419 502.077 470.2 502.077 469.931V468.394C502.077 468.124 501.858 467.906 501.588 467.906H498.376C498.107 467.906 497.888 468.124 497.888 468.394V469.931C497.888 470.2 498.107 470.419 498.376 470.419Z" fill="#D6D6DA"/>
<path d="M554.502 475.445H587.034C587.303 475.445 587.522 475.226 587.522 474.957V473.42C587.522 473.151 587.303 472.932 587.034 472.932H554.502C554.232 472.932 554.014 473.151 554.014 473.42V474.957C554.014 475.226 554.232 475.445 554.502 475.445Z" fill="#D6D6DA"/>
<path d="M520.036 390.737H517.192C516.33 390.737 515.631 391.436 515.631 392.298C515.631 393.16 516.33 393.859 517.192 393.859H520.036C520.898 393.859 521.597 393.16 521.597 392.298C521.597 391.436 520.898 390.737 520.036 390.737Z" fill="white"/>
<path d="M552.559 390.737H549.715C548.853 390.737 548.154 391.436 548.154 392.298C548.154 393.16 548.853 393.859 549.715 393.859H552.559C553.421 393.859 554.12 393.16 554.12 392.298C554.12 391.436 553.421 390.737 552.559 390.737Z" fill="white"/>
<path d="M561.774 390.737H558.93C558.068 390.737 557.369 391.436 557.369 392.298C557.369 393.16 558.068 393.859 558.93 393.859H561.774C562.636 393.859 563.335 393.16 563.335 392.298C563.335 391.436 562.636 390.737 561.774 390.737Z" fill="white"/>
<path d="M543.712 390.477H526.039C525.176 390.477 524.477 391.176 524.477 392.038C524.477 392.9 525.176 393.599 526.039 393.599H543.712C544.575 393.599 545.274 392.9 545.274 392.038C545.274 391.176 544.575 390.477 543.712 390.477Z" fill="white"/>
<path d="M587.076 390.477H569.403C568.54 390.477 567.841 391.176 567.841 392.038C567.841 392.9 568.54 393.599 569.403 393.599H587.076C587.939 393.599 588.638 392.9 588.638 392.038C588.638 391.176 587.939 390.477 587.076 390.477Z" fill="white"/>
<path d="M528.709 397.784H525.865C525.003 397.784 524.304 398.483 524.304 399.345C524.304 400.207 525.003 400.906 525.865 400.906H528.709C529.571 400.906 530.27 400.207 530.27 399.345C530.27 398.483 529.571 397.784 528.709 397.784Z" fill="white"/>
<path d="M561.232 397.784H558.388C557.526 397.784 556.827 398.483 556.827 399.345C556.827 400.207 557.526 400.906 558.388 400.906H561.232C562.094 400.906 562.793 400.207 562.793 399.345C562.793 398.483 562.094 397.784 561.232 397.784Z" fill="white"/>
<path d="M570.446 397.784H567.603C566.741 397.784 566.042 398.483 566.042 399.345C566.042 400.207 566.741 400.906 567.603 400.906H570.446C571.309 400.906 572.008 400.207 572.008 399.345C572.008 398.483 571.309 397.784 570.446 397.784Z" fill="white"/>
<path d="M552.385 397.523H534.711C533.849 397.523 533.15 398.222 533.15 399.085C533.15 399.947 533.849 400.646 534.711 400.646H552.385C553.247 400.646 553.946 399.947 553.946 399.085C553.946 398.222 553.247 397.523 552.385 397.523Z" fill="white"/>
<path d="M595.749 397.523H578.075C577.213 397.523 576.514 398.222 576.514 399.085C576.514 399.947 577.213 400.646 578.075 400.646H595.749C596.611 400.646 597.31 399.947 597.31 399.085C597.31 398.222 596.611 397.523 595.749 397.523Z" fill="white"/>
<path d="M537.381 404.83H534.538C533.676 404.83 532.977 405.529 532.977 406.391C532.977 407.254 533.676 407.953 534.538 407.953H537.381C538.244 407.953 538.943 407.254 538.943 406.391C538.943 405.529 538.244 404.83 537.381 404.83Z" fill="white"/>
<path d="M569.904 404.83H567.061C566.199 404.83 565.5 405.529 565.5 406.391C565.5 407.254 566.199 407.953 567.061 407.953H569.904C570.767 407.953 571.466 407.254 571.466 406.391C571.466 405.529 570.767 404.83 569.904 404.83Z" fill="white"/>
<path d="M579.119 404.83H576.276C575.414 404.83 574.715 405.529 574.715 406.391C574.715 407.254 575.414 407.953 576.276 407.953H579.119C579.982 407.953 580.68 407.254 580.68 406.391C580.68 405.529 579.982 404.83 579.119 404.83Z" fill="white"/>
<path d="M561.058 404.57H543.384C542.522 404.57 541.823 405.269 541.823 406.131C541.823 406.993 542.522 407.692 543.384 407.692H561.058C561.92 407.692 562.619 406.993 562.619 406.131C562.619 405.269 561.92 404.57 561.058 404.57Z" fill="white"/>
<path d="M604.422 404.57H586.748C585.886 404.57 585.187 405.269 585.187 406.131C585.187 406.993 585.886 407.692 586.748 407.692H604.422C605.284 407.692 605.983 406.993 605.983 406.131C605.983 405.269 605.284 404.57 604.422 404.57Z" fill="white"/>
<path d="M546.054 411.877H543.211C542.348 411.877 541.649 412.576 541.649 413.438C541.649 414.3 542.348 414.999 543.211 414.999H546.054C546.916 414.999 547.615 414.3 547.615 413.438C547.615 412.576 546.916 411.877 546.054 411.877Z" fill="white"/>
<path d="M578.577 411.877H575.734C574.871 411.877 574.172 412.576 574.172 413.438C574.172 414.3 574.871 414.999 575.734 414.999H578.577C579.439 414.999 580.138 414.3 580.138 413.438C580.138 412.576 579.439 411.877 578.577 411.877Z" fill="white"/>
<path d="M587.792 411.877H584.948C584.086 411.877 583.387 412.576 583.387 413.438C583.387 414.3 584.086 414.999 584.948 414.999H587.792C588.654 414.999 589.353 414.3 589.353 413.438C589.353 412.576 588.654 411.877 587.792 411.877Z" fill="white"/>
<path d="M569.731 411.617H552.057C551.195 411.617 550.496 412.316 550.496 413.178C550.496 414.04 551.195 414.739 552.057 414.739H569.731C570.593 414.739 571.292 414.04 571.292 413.178C571.292 412.316 570.593 411.617 569.731 411.617Z" fill="white"/>
<path d="M552.559 439.898H549.715C548.853 439.898 548.154 440.596 548.154 441.459C548.154 442.321 548.853 443.02 549.715 443.02H552.559C553.421 443.02 554.12 442.321 554.12 441.459C554.12 440.596 553.421 439.898 552.559 439.898Z" fill="white"/>
<path d="M561.774 439.898H558.93C558.068 439.898 557.369 440.596 557.369 441.459C557.369 442.321 558.068 443.02 558.93 443.02H561.774C562.636 443.02 563.335 442.321 563.335 441.459C563.335 440.596 562.636 439.898 561.774 439.898Z" fill="white"/>
<path d="M587.076 440.158H569.403C568.54 440.158 567.841 440.857 567.841 441.719C567.841 442.581 568.54 443.28 569.403 443.28H587.076C587.939 443.28 588.638 442.581 588.638 441.719C588.638 440.857 587.939 440.158 587.076 440.158Z" fill="white"/>
<path d="M520.036 439.898H517.192C516.33 439.898 515.631 440.596 515.631 441.459C515.631 442.321 516.33 443.02 517.192 443.02H520.036C520.898 443.02 521.597 442.321 521.597 441.459C521.597 440.596 520.898 439.898 520.036 439.898Z" fill="white"/>
<path d="M543.712 440.158H526.039C525.176 440.158 524.477 440.857 524.477 441.719C524.477 442.581 525.176 443.28 526.039 443.28H543.712C544.575 443.28 545.274 442.581 545.274 441.719C545.274 440.857 544.575 440.158 543.712 440.158Z" fill="white"/>
<path d="M528.709 432.851H525.865C525.003 432.851 524.304 433.55 524.304 434.412C524.304 435.274 525.003 435.973 525.865 435.973H528.709C529.571 435.973 530.27 435.274 530.27 434.412C530.27 433.55 529.571 432.851 528.709 432.851Z" fill="white"/>
<path d="M561.232 432.851H558.388C557.526 432.851 556.827 433.55 556.827 434.412C556.827 435.274 557.526 435.973 558.388 435.973H561.232C562.094 435.973 562.793 435.274 562.793 434.412C562.793 433.55 562.094 432.851 561.232 432.851Z" fill="white"/>
<path d="M570.446 432.851H567.603C566.741 432.851 566.042 433.55 566.042 434.412C566.042 435.274 566.741 435.973 567.603 435.973H570.446C571.309 435.973 572.008 435.274 572.008 434.412C572.008 433.55 571.309 432.851 570.446 432.851Z" fill="white"/>
<path d="M552.385 433.111H534.711C533.849 433.111 533.15 433.81 533.15 434.672C533.15 435.534 533.849 436.233 534.711 436.233H552.385C553.247 436.233 553.946 435.534 553.946 434.672C553.946 433.81 553.247 433.111 552.385 433.111Z" fill="white"/>
<path d="M537.381 425.804H534.538C533.676 425.804 532.977 426.503 532.977 427.365C532.977 428.227 533.676 428.926 534.538 428.926H537.381C538.244 428.926 538.943 428.227 538.943 427.365C538.943 426.503 538.244 425.804 537.381 425.804Z" fill="white"/>
<path d="M569.904 425.804H567.061C566.199 425.804 565.5 426.503 565.5 427.365C565.5 428.227 566.199 428.926 567.061 428.926H569.904C570.767 428.926 571.466 428.227 571.466 427.365C571.466 426.503 570.767 425.804 569.904 425.804Z" fill="white"/>
<path d="M579.119 425.804H576.276C575.414 425.804 574.715 426.503 574.715 427.365C574.715 428.227 575.414 428.926 576.276 428.926H579.119C579.982 428.926 580.68 428.227 580.68 427.365C580.68 426.503 579.982 425.804 579.119 425.804Z" fill="white"/>
<path d="M561.058 426.064H543.384C542.522 426.064 541.823 426.763 541.823 427.626C541.823 428.488 542.522 429.187 543.384 429.187H561.058C561.92 429.187 562.619 428.488 562.619 427.626C562.619 426.763 561.92 426.064 561.058 426.064Z" fill="white"/>
<path d="M546.054 418.758H543.211C542.348 418.758 541.649 419.457 541.649 420.319C541.649 421.181 542.348 421.88 543.211 421.88H546.054C546.916 421.88 547.615 421.181 547.615 420.319C547.615 419.457 546.916 418.758 546.054 418.758Z" fill="white"/>
<path d="M578.577 418.758H575.734C574.871 418.758 574.172 419.457 574.172 420.319C574.172 421.181 574.871 421.88 575.734 421.88H578.577C579.439 421.88 580.138 421.181 580.138 420.319C580.138 419.457 579.439 418.758 578.577 418.758Z" fill="white"/>
<path d="M587.792 418.758H584.948C584.086 418.758 583.387 419.457 583.387 420.319C583.387 421.181 584.086 421.88 584.948 421.88H587.792C588.654 421.88 589.353 421.181 589.353 420.319C589.353 419.457 588.654 418.758 587.792 418.758Z" fill="white"/>
<path d="M569.731 419.018H552.057C551.195 419.018 550.496 419.717 550.496 420.579C550.496 421.441 551.195 422.14 552.057 422.14H569.731C570.593 422.14 571.292 421.441 571.292 420.579C571.292 419.717 570.593 419.018 569.731 419.018Z" fill="white"/>
<path d="M504.917 522.482L491.568 501.38L533.47 467.977L550.765 448.816C553.012 446.327 555.873 444.471 559.062 443.433C562.251 442.396 565.656 442.214 568.938 442.905C572.22 443.596 575.262 445.136 577.762 447.372C580.262 449.607 582.131 452.46 583.183 455.644C584.742 460.363 584.407 465.502 582.248 469.979C580.089 474.455 576.276 477.917 571.613 479.635L544.264 489.71L504.917 522.482Z" fill="#FFB6B6"/>
<path d="M191.69 369.481V472.041H263.54V369.481C263.541 368.743 263.306 368.025 262.868 367.431C262.431 366.837 261.815 366.399 261.11 366.181C260.778 366.071 260.43 366.017 260.08 366.021H195.16C194.705 366.02 194.254 366.109 193.833 366.282C193.413 366.456 193.03 366.71 192.708 367.032C192.386 367.353 192.13 367.735 191.955 368.155C191.78 368.575 191.69 369.026 191.69 369.481ZM219.73 404.721C219.749 402.699 220.565 400.766 222.001 399.343C223.438 397.92 225.378 397.122 227.4 397.122C229.422 397.122 231.362 397.92 232.798 399.343C234.235 400.766 235.051 402.699 235.07 404.721V416.621C235.06 418.648 234.247 420.589 232.81 422.019C231.372 423.449 229.427 424.252 227.4 424.252C225.372 424.252 223.428 423.449 221.99 422.019C220.553 420.589 219.74 418.648 219.73 416.621V404.721Z" fill="#4A4A4A"/>
<path d="M191.47 468.761V478.651C191.472 479.163 191.675 479.654 192.036 480.017C192.398 480.381 192.888 480.587 193.4 480.591H261.83C262.343 480.588 262.834 480.383 263.195 480.019C263.557 479.656 263.76 479.164 263.76 478.651V468.761H191.47Z" fill="#D6D6DA"/>
<path d="M78.6599 214.961V402.221C78.6618 404.607 79.6106 406.895 81.298 408.583C82.9855 410.27 85.2735 411.219 87.6599 411.221H365.16C367.546 411.219 369.834 410.27 371.522 408.583C373.209 406.895 374.158 404.607 374.16 402.221V214.961C374.154 212.577 373.204 210.292 371.517 208.607C369.83 206.922 367.544 205.974 365.16 205.971H87.6599C85.2756 205.974 82.9897 206.922 81.3028 208.607C79.6159 210.292 78.6656 212.577 78.6599 214.961Z" fill="#D6D6DA"/>
<path d="M85.1699 217.291V399.911C85.1721 401.186 85.6796 402.408 86.5811 403.31C87.4827 404.211 88.7049 404.719 89.9799 404.721H362.85C364.125 404.719 365.347 404.211 366.249 403.31C367.15 402.408 367.658 401.186 367.66 399.911V217.291C367.66 216.014 367.153 214.79 366.252 213.886C365.35 212.983 364.126 212.474 362.85 212.471H89.9799C88.7034 212.474 87.48 212.983 86.5783 213.886C85.6765 214.79 85.1701 216.014 85.1699 217.291Z" fill="white"/>
<path d="M135.81 479.921C136.088 480.269 136.441 480.55 136.843 480.742C137.244 480.934 137.685 481.033 138.13 481.031H300.47C300.914 481.03 301.352 480.931 301.753 480.74C302.154 480.548 302.507 480.27 302.786 479.925C303.066 479.581 303.265 479.178 303.37 478.746C303.474 478.315 303.481 477.865 303.39 477.431L300.87 465.461C300.765 464.973 300.541 464.518 300.216 464.139C299.891 463.76 299.476 463.469 299.01 463.291C298.672 463.158 298.313 463.09 297.95 463.091H140.64C140.277 463.09 139.918 463.158 139.58 463.291C139.114 463.469 138.699 463.76 138.374 464.139C138.049 464.518 137.824 464.973 137.72 465.461L135.2 477.431C135.11 477.865 135.119 478.314 135.224 478.745C135.33 479.175 135.53 479.577 135.81 479.921Z" fill="#4A4A4A"/>
<path d="M353.995 237.628H98.6711C98.4058 237.622 98.1532 237.512 97.9676 237.322C97.782 237.133 97.6781 236.878 97.6781 236.612C97.6781 236.347 97.782 236.092 97.9676 235.902C98.1532 235.712 98.4058 235.603 98.6711 235.597H353.995C354.26 235.603 354.512 235.712 354.698 235.902C354.884 236.092 354.988 236.347 354.988 236.612C354.988 236.878 354.884 237.133 354.698 237.322C354.512 237.512 354.26 237.622 353.995 237.628Z" fill="#D6D6DA"/>
<path d="M116.051 230.413C119.338 230.413 122.002 227.689 122.002 224.33C122.002 220.97 119.338 218.247 116.051 218.247C112.765 218.247 110.101 220.97 110.101 224.33C110.101 227.689 112.765 230.413 116.051 230.413Z" fill="#D6D6DA"/>
<path d="M136.607 230.413C139.894 230.413 142.558 227.689 142.558 224.33C142.558 220.97 139.894 218.247 136.607 218.247C133.321 218.247 130.657 220.97 130.657 224.33C130.657 227.689 133.321 230.413 136.607 230.413Z" fill="#D6D6DA"/>
<path d="M157.163 230.413C160.45 230.413 163.114 227.689 163.114 224.33C163.114 220.97 160.45 218.247 157.163 218.247C153.877 218.247 151.213 220.97 151.213 224.33C151.213 227.689 153.877 230.413 157.163 230.413Z" fill="#D6D6DA"/>
<path d="M341.616 219.751H327.016C326.728 219.758 326.453 219.877 326.251 220.083C326.05 220.29 325.937 220.567 325.937 220.856C325.937 221.145 326.05 221.422 326.251 221.628C326.453 221.835 326.728 221.954 327.016 221.961H341.616C341.907 221.957 342.184 221.839 342.388 221.632C342.592 221.425 342.706 221.146 342.706 220.856C342.706 220.565 342.592 220.287 342.388 220.08C342.184 219.873 341.907 219.755 341.616 219.751Z" fill="#D6D6DA"/>
<path d="M341.616 223.901H327.016C326.728 223.907 326.453 224.027 326.251 224.233C326.049 224.44 325.936 224.717 325.936 225.006C325.936 225.295 326.049 225.572 326.251 225.779C326.453 225.985 326.728 226.104 327.016 226.111H341.616C341.907 226.107 342.185 225.989 342.389 225.783C342.594 225.576 342.708 225.297 342.708 225.006C342.708 224.715 342.594 224.436 342.389 224.229C342.185 224.022 341.907 223.904 341.616 223.901Z" fill="#D6D6DA"/>
<path d="M341.616 228.051H327.016C326.728 228.058 326.453 228.177 326.251 228.383C326.05 228.59 325.937 228.867 325.937 229.156C325.937 229.444 326.05 229.722 326.251 229.928C326.453 230.135 326.728 230.254 327.016 230.261H341.616C341.907 230.257 342.184 230.138 342.388 229.932C342.592 229.725 342.706 229.446 342.706 229.156C342.706 228.865 342.592 228.587 342.388 228.38C342.184 228.173 341.907 228.055 341.616 228.051Z" fill="#D6D6DA"/>
<path d="M693.596 473.101C694.036 474.384 694.872 475.494 695.983 476.272C697.094 477.05 698.423 477.457 699.779 477.432L726.271 476.75C727.637 476.724 728.957 476.256 730.035 475.416C731.113 474.577 731.891 473.411 732.251 472.093L736 432.006C737.33 432.609 738.778 432.906 740.238 432.877C741.507 432.845 742.756 432.564 743.916 432.049C745.076 431.534 746.122 430.796 746.997 429.877C747.871 428.957 748.556 427.875 749.012 426.691C749.468 425.507 749.686 424.245 749.654 422.976C749.622 421.708 749.341 420.458 748.826 419.299C748.311 418.139 747.573 417.092 746.654 416.218C745.734 415.344 744.652 414.659 743.468 414.203C742.284 413.747 741.022 413.529 739.753 413.56C739.17 413.559 738.588 413.619 738.017 413.741C737.397 413.07 736.642 412.536 735.803 412.173C734.963 411.811 734.057 411.629 733.143 411.638L692.393 412.69C692.055 412.703 691.718 412.745 691.387 412.815C690.494 412.982 689.646 413.338 688.902 413.859C688.157 414.381 687.533 415.056 687.071 415.839C686.61 416.622 686.321 417.495 686.225 418.399C686.129 419.303 686.227 420.217 686.514 421.08L693.596 473.101ZM736.769 429.284L739.437 419.732C739.74 418.628 739.747 417.464 739.457 416.357C739.587 416.357 739.701 416.295 739.83 416.295C741.659 416.257 743.429 416.946 744.751 418.211C746.072 419.476 746.839 421.213 746.882 423.042C746.924 424.871 746.24 426.643 744.979 427.968C743.718 429.293 741.983 430.064 740.154 430.112C738.971 430.149 737.801 429.863 736.769 429.284Z" fill="#4A4A4A"/>
<path d="M691.387 412.815C692.256 417.779 702.017 421.269 713.753 420.662C724.546 420.165 733.371 416.375 734.987 411.884C734.389 411.707 733.767 411.624 733.143 411.638L692.393 412.69C692.055 412.703 691.718 412.744 691.387 412.815Z" fill="#D6D6DA"/>
<path d="M715.904 451.073C715.958 451.059 716.009 451.037 716.055 451.007L721.808 447.241C721.878 447.196 721.935 447.134 721.975 447.061C722.014 446.988 722.035 446.906 722.035 446.823C722.035 446.74 722.014 446.658 721.975 446.585C721.935 446.512 721.878 446.45 721.809 446.405L715.829 442.488C715.774 442.452 715.713 442.427 715.648 442.414C715.583 442.402 715.517 442.402 715.452 442.415C715.388 442.429 715.327 442.454 715.272 442.491C715.218 442.528 715.171 442.576 715.135 442.631C715.099 442.686 715.074 442.747 715.062 442.812C715.05 442.877 715.051 442.943 715.064 443.008C715.078 443.072 715.104 443.133 715.141 443.187C715.178 443.242 715.226 443.288 715.281 443.324L720.622 446.822L715.508 450.17C715.409 450.235 715.336 450.333 715.302 450.446C715.269 450.559 715.276 450.681 715.324 450.789C715.371 450.898 715.456 450.986 715.562 451.038C715.668 451.089 715.79 451.102 715.904 451.073Z" fill="#6366F1"/>
<path d="M706.818 451.492C706.914 451.468 707.001 451.415 707.068 451.341C707.134 451.266 707.177 451.174 707.19 451.075C707.204 450.977 707.188 450.876 707.144 450.787C707.1 450.698 707.03 450.623 706.944 450.574L701.641 447.533L706.766 443.726C706.819 443.687 706.863 443.638 706.897 443.582C706.931 443.525 706.953 443.463 706.963 443.398C706.972 443.333 706.969 443.267 706.953 443.203C706.937 443.14 706.908 443.08 706.869 443.027C706.83 442.974 706.781 442.93 706.725 442.896C706.668 442.863 706.606 442.84 706.541 442.831C706.476 442.821 706.41 442.825 706.346 442.841C706.283 442.857 706.223 442.885 706.17 442.924L700.432 447.187C700.365 447.236 700.312 447.301 700.276 447.377C700.241 447.452 700.225 447.535 700.23 447.617C700.235 447.7 700.261 447.781 700.304 447.851C700.348 447.922 700.409 447.98 700.481 448.021L706.446 451.441C706.559 451.506 706.692 451.524 706.818 451.492Z" fill="#6366F1"/>
<path d="M715.332 454.373C715.381 454.361 715.427 454.341 715.469 454.315C715.525 454.281 715.574 454.236 715.613 454.183C715.652 454.13 715.68 454.07 715.695 454.006C715.711 453.942 715.714 453.876 715.704 453.811C715.694 453.746 715.671 453.684 715.637 453.628L707.481 440.22C707.412 440.107 707.301 440.026 707.172 439.994C707.043 439.963 706.907 439.985 706.794 440.054C706.681 440.123 706.6 440.234 706.568 440.362C706.537 440.491 706.558 440.627 706.627 440.74L714.782 454.149C714.838 454.24 714.921 454.311 715.02 454.351C715.119 454.392 715.229 454.399 715.332 454.373Z" fill="#6366F1"/>
<path d="M256.84 292.827H212.649C210.846 292.827 209.385 294.289 209.385 296.091V300.409C209.385 302.211 210.846 303.673 212.649 303.673H256.84C258.642 303.673 260.104 302.211 260.104 300.409V296.091C260.104 294.289 258.642 292.827 256.84 292.827Z" fill="#6366F1"/>
<path d="M282.598 314.519H186.89C185.087 314.519 183.626 315.98 183.626 317.783V322.1C183.626 323.903 185.087 325.364 186.89 325.364H282.598C284.401 325.364 285.862 323.903 285.862 322.1V317.783C285.862 315.98 284.401 314.519 282.598 314.519Z" fill="#E6E6E6"/>
<path d="M282.598 336.21H186.89C185.087 336.21 183.626 337.671 183.626 339.474V343.791C183.626 345.594 185.087 347.056 186.89 347.056H282.598C284.401 347.056 285.862 345.594 285.862 343.791V339.474C285.862 337.671 284.401 336.21 282.598 336.21Z" fill="#E6E6E6"/>
<path d="M290.711 408.846L290.928 409.53L290.939 409.553L297.464 429.391L304.971 452.252L319.093 495.213L319.23 501.887V501.91L320.28 555.594L317.371 562.872L320.645 574.805C320.645 574.805 319.139 556.768 311.062 567.126C306.488 573.012 301.138 579.035 296.746 584.682C303.146 587.272 309.648 589.614 316.253 591.709C317.679 592.166 319.116 592.599 320.554 593.033C320.862 593.124 321.17 593.215 321.478 593.306C343.372 599.781 366.008 603.42 388.829 604.132C390.015 604.167 391.179 604.189 392.308 604.212C392.707 604.224 393.095 604.235 393.483 604.235C394.761 604.246 396.027 604.258 397.304 604.258C399.883 604.258 402.449 604.22 405.005 604.144C423.918 603.611 442.721 601.068 461.096 596.558C460.971 588.971 460.628 580.108 460.138 570.639C459.91 565.996 454.788 560.966 454.48 556.106C454.263 552.456 458.86 549.022 458.621 545.314C457.069 522.488 455.13 531.25 453.693 515.085C453.544 513.5 453.407 511.983 453.282 510.534C452.358 500.153 451.719 493.662 451.719 493.662L457.856 454.979L467.496 394.244L466.754 393.023L465.922 392.613L415.078 367.447L412.317 360.375C411.513 358.337 410.117 356.587 408.31 355.349C406.502 354.111 404.366 353.441 402.176 353.427L368.683 353.291C366.944 353.283 365.229 353.689 363.68 354.477C362.13 355.265 360.791 356.411 359.773 357.819L350.704 370.379L290.711 408.846Z" fill="#D6D6DA"/>
<path d="M326.816 485.654L319.23 501.887L314.051 512.975L305.142 559.621L300.682 564.355L296.86 547.596L256.862 556.477C255.55 549.187 256.511 556.723 255.701 548.727C255.929 548.499 256.169 548.27 256.408 548.042C257.047 547.449 257.583 546.89 257.572 546.354C257.116 518.77 258.485 471.828 269.915 443.388C271.705 438.745 274.066 434.342 276.942 430.281C277.17 429.973 277.387 429.665 277.604 429.357C282.874 421.976 286.205 414.709 290.928 409.542V409.53C290.957 409.507 290.984 409.48 291.008 409.451C291.025 409.442 291.04 409.43 291.053 409.416L323.497 392.214L324.889 431.319L325.881 459.427L326.816 485.654Z" fill="#D6D6DA"/>
<path d="M443.801 490.264L453.277 510.539L456.585 517.6L465.492 564.242L469.937 568.965L473.768 552.209L475.568 551.84L508.026 545.118L517.487 575.164C519.619 571.611 520.459 567.431 519.865 563.33C519.271 559.23 517.278 555.46 514.225 552.658C513.579 552.074 513.041 551.505 513.056 550.966C513.595 518.523 511.61 459.283 493.689 434.9C487.997 427.163 484.582 419.456 479.613 414.072C479.598 414.056 479.598 414.041 479.583 414.041L467.491 394.243L466.753 393.027L465.922 392.612L443.801 490.264Z" fill="#D6D6DA"/>
<path d="M386.397 343.759C411.005 343.759 430.955 323.809 430.955 299.201C430.955 274.592 411.005 254.642 386.397 254.642C361.788 254.642 341.838 274.592 341.838 299.201C341.838 323.809 361.788 343.759 386.397 343.759Z" fill="#FFB6B6"/>
<path d="M446.622 268.077C446.277 267.708 445.861 267.412 445.398 267.208C444.936 267.003 444.438 266.894 443.932 266.887L444.602 265.027C444.821 264.441 444.88 263.807 444.773 263.191C444.667 262.575 444.398 261.998 443.995 261.52C443.592 261.042 443.069 260.679 442.48 260.47C441.891 260.26 441.257 260.211 440.642 260.327L438.202 260.797L438.432 259.167C438.52 258.56 438.449 257.94 438.225 257.369C438.001 256.798 437.633 256.295 437.155 255.909C436.678 255.524 436.109 255.269 435.503 255.171C434.898 255.072 434.277 255.133 433.702 255.347C433.179 255.553 432.617 255.639 432.056 255.599C431.496 255.559 430.951 255.394 430.462 255.117C429.972 254.848 429.546 254.475 429.214 254.024C428.882 253.573 428.653 253.055 428.542 252.507L427.692 248.407L427.602 248.187C423.462 241.287 415.502 236.267 405.762 234.427C397.092 232.777 388.202 233.617 379.632 234.407C376.232 234.727 372.392 235.087 369.192 237.047C366.472 238.727 364.172 242.087 364.642 245.477C356.192 242.887 347.132 248.057 342.642 254.577C337.322 262.337 336.452 272.057 336.312 279.657C335.932 297.637 339.642 312.347 347.312 323.387C347.872 324.187 348.012 325.857 349.122 326.417L348.892 326.047C350.132 326.667 351.392 327.667 350.922 328.737C349.572 331.817 358.542 338.627 364.862 340.877C376.392 344.987 391.722 344.637 402.502 343.157L402.882 340.607C406.772 340.077 409.512 339.067 410.282 337.487C411.642 336.327 412.802 335.287 413.812 334.327L413.822 334.317C413.842 334.297 413.882 334.267 413.902 334.247C418.772 329.577 419.902 326.917 420.412 322.867C420.902 318.897 420.032 314.867 419.142 311.237C437.882 314.137 411.762 291.277 429.222 286.857C429.422 286.795 429.626 286.745 429.832 286.707C430.342 286.587 430.852 286.467 431.342 286.327C433.704 285.686 435.966 284.72 438.062 283.457C442.942 280.487 444.552 276.547 447.072 272.107C447.436 271.475 447.588 270.743 447.507 270.018C447.426 269.293 447.116 268.613 446.622 268.077Z" fill="#4A4A4A"/>
<path d="M543.992 493.437C543.982 495.187 543.962 497.637 543.882 500.667C543.872 501.087 543.862 501.517 543.852 501.957C543.722 507.527 543.592 512.197 543.382 517.387C543.372 517.747 543.362 518.097 543.342 518.457C543.062 525.697 542.622 534.127 541.862 547.477C540.452 572.137 537.992 550.867 535.522 559.517C535.402 559.947 535.272 560.457 535.152 561.057C534.778 563.234 534.147 565.359 533.272 567.387C531.962 568.167 530.612 568.917 529.282 569.667C525.492 571.777 521.642 573.807 517.762 575.737C515.582 576.817 513.392 577.877 511.192 578.897C510.842 579.057 510.502 579.217 510.162 579.367C498.896 584.578 487.286 589.008 475.412 592.627C473.092 593.327 470.782 594.007 468.442 594.637C466.002 595.317 463.562 595.957 461.092 596.557C442.717 601.068 423.915 603.612 405.002 604.147C402.452 604.227 399.882 604.257 397.302 604.257C396.022 604.257 394.762 604.247 393.482 604.237C393.092 604.237 392.702 604.227 392.312 604.217C391.182 604.187 390.012 604.167 388.832 604.137C366.011 603.425 343.376 599.785 321.482 593.307L320.552 593.037C319.112 592.597 317.682 592.167 316.252 591.707C309.652 589.617 303.149 587.277 296.742 584.687C291.852 582.717 287.019 580.603 282.242 578.347C282.199 578.335 282.158 578.315 282.122 578.287C281.122 577.827 280.112 577.347 279.112 576.857C278.982 576.787 278.842 576.717 278.702 576.647C274.972 574.827 271.282 572.92 267.632 570.927C264.562 563.877 260.242 562.527 257.562 556.327C256.782 554.485 256.218 552.559 255.882 550.587C255.882 550.567 255.872 550.547 255.872 550.517C256.152 554.237 254.682 543.917 255.862 550.477C255.852 550.357 255.842 550.227 255.832 550.077C255.802 549.717 255.762 549.277 255.702 548.727C252.272 515.237 252.492 476.937 251.002 445.377C250.902 443.337 250.799 441.383 250.692 439.517C250.662 438.897 250.622 438.287 250.582 437.687C250.652 437.507 250.732 437.317 250.822 437.137C250.841 437.085 250.865 437.035 250.892 436.987C250.922 436.925 250.955 436.865 250.992 436.807C251.012 436.777 251.042 436.737 251.062 436.707C251.077 436.672 251.094 436.639 251.112 436.607C251.202 436.467 251.302 436.317 251.412 436.177C251.462 436.117 251.502 436.067 251.552 436.017C251.587 435.966 251.627 435.919 251.672 435.877C251.703 435.829 251.74 435.785 251.782 435.747C251.822 435.707 251.862 435.657 251.912 435.607C251.934 435.575 251.961 435.548 251.992 435.527C252.071 435.436 252.158 435.352 252.252 435.277C252.609 434.949 252.99 434.648 253.392 434.377C253.532 434.287 253.682 434.197 253.822 434.097C254.83 433.494 255.891 432.985 256.992 432.577C257.372 432.437 257.752 432.307 258.162 432.167C258.312 432.127 258.452 432.077 258.602 432.027C258.822 431.957 259.042 431.887 259.272 431.837C260.412 431.497 261.642 431.207 262.972 430.937C263.132 430.907 263.302 430.877 263.472 430.837C263.712 430.787 263.962 430.747 264.212 430.707C264.552 430.647 264.902 430.587 265.252 430.527C268.222 430.057 271.592 429.707 275.312 429.477C275.662 429.457 276.012 429.437 276.362 429.417C276.772 429.397 277.182 429.377 277.602 429.357C277.952 429.337 278.312 429.327 278.672 429.317C279.022 429.297 279.382 429.287 279.752 429.277C280.762 429.247 281.802 429.217 282.862 429.197C285.882 429.137 289.062 429.157 292.402 429.227C293.952 429.267 295.532 429.307 297.152 429.377C297.262 429.377 297.362 429.387 297.462 429.387C298.872 429.437 300.292 429.497 301.752 429.577C302.772 429.627 303.802 429.677 304.832 429.737C305.802 429.797 306.782 429.857 307.772 429.927C308.542 429.967 309.312 430.027 310.092 430.077C310.752 430.127 311.412 430.177 312.072 430.217L312.972 430.277C313.462 430.317 313.952 430.347 314.452 430.397C315.552 430.487 316.652 430.577 317.772 430.667C318.882 430.767 320.012 430.867 321.142 430.967C322.272 431.067 323.412 431.177 324.552 431.287C324.672 431.297 324.782 431.307 324.892 431.317C325.932 431.427 326.972 431.527 328.022 431.637C328.262 431.657 328.512 431.677 328.752 431.707C329.753 431.807 330.774 431.925 331.784 432.032C332.094 432.066 332.403 432.098 332.714 432.132C333.505 432.218 334.285 432.293 335.082 432.387C336.132 432.507 337.202 432.617 338.242 432.757C339.052 432.847 339.862 432.937 340.672 433.037C341.942 433.187 343.232 433.347 344.522 433.517C345.012 433.577 345.502 433.637 345.992 433.707C349.672 434.167 353.392 434.677 357.172 435.207C362.902 436.017 368.722 436.897 374.582 437.847C380.452 438.797 386.356 439.8 392.292 440.857C393.792 441.127 395.292 441.397 396.802 441.677C397.482 441.807 398.162 441.937 398.842 442.067C400.002 442.277 401.162 442.497 402.322 442.717C403.482 442.937 404.642 443.157 405.802 443.387C407.182 443.657 408.572 443.927 409.952 444.197C419.042 445.997 428.082 447.917 436.902 449.927C438.352 450.257 439.802 450.597 441.242 450.927C444.122 451.597 446.975 452.277 449.802 452.967C450.582 453.147 451.352 453.337 452.122 453.527C454.042 454.007 455.962 454.487 457.852 454.977L458.182 455.067C459.572 455.407 460.932 455.757 462.292 456.117C465.502 456.957 468.659 457.807 471.762 458.667C473.822 459.237 475.859 459.813 477.872 460.397C480.882 461.267 483.832 462.147 486.702 463.037C487.412 463.257 488.122 463.477 488.822 463.687C490.922 464.337 492.992 464.997 495.002 465.657C496.602 466.177 498.162 466.707 499.702 467.237C501.242 467.767 502.752 468.297 504.232 468.827C505.182 469.167 506.122 469.527 507.062 469.867C508.412 470.367 509.742 470.867 511.042 471.367C511.442 471.517 511.832 471.677 512.222 471.827C512.472 471.937 512.712 472.027 512.952 472.127C513.422 472.317 513.902 472.497 514.362 472.687C514.832 472.867 515.292 473.057 515.752 473.257C516.202 473.437 516.662 473.627 517.102 473.817C517.552 473.997 517.992 474.187 518.432 474.387C518.802 474.537 519.162 474.697 519.512 474.857C520.222 475.167 520.932 475.477 521.622 475.797C521.962 475.957 522.302 476.107 522.642 476.267L523.422 476.627C523.532 476.687 523.642 476.737 523.752 476.787C524.002 476.907 524.262 477.037 524.512 477.157C525.092 477.427 525.662 477.717 526.222 477.987C526.972 478.367 527.702 478.747 528.402 479.117C529.112 479.497 529.802 479.877 530.462 480.247C530.572 480.307 530.672 480.367 530.782 480.427C530.932 480.507 531.082 480.597 531.232 480.677C531.742 480.967 532.232 481.267 532.722 481.557C533.682 482.147 534.592 482.727 535.442 483.307C535.632 483.437 535.812 483.567 536.002 483.687C536.632 484.137 537.232 484.577 537.792 485.027C537.792 485.037 537.792 485.037 537.802 485.037C537.992 485.177 538.172 485.327 538.352 485.467C538.502 485.607 538.662 485.727 538.812 485.867C539.332 486.317 539.812 486.747 540.252 487.187C540.4 487.322 540.54 487.466 540.672 487.617C540.73 487.665 540.784 487.718 540.832 487.777C541.032 487.977 541.212 488.177 541.382 488.377C541.408 488.404 541.432 488.434 541.452 488.467C541.692 488.747 541.912 489.027 542.122 489.307C542.222 489.447 542.332 489.587 542.422 489.727C542.542 489.897 542.662 490.077 542.762 490.247C542.852 490.387 542.932 490.537 543.012 490.677C543.224 491.037 543.405 491.415 543.552 491.807C543.665 492.072 543.755 492.346 543.822 492.627C543.898 492.892 543.955 493.163 543.992 493.437Z" fill="#D0CFD6"/>
<path opacity="0.2" d="M543.992 493.437C543.982 495.187 543.962 497.637 543.882 500.667C543.872 501.087 543.852 501.517 543.842 501.957C543.742 506.207 543.592 511.457 543.382 517.387C543.372 517.747 543.362 518.097 543.342 518.457C543.062 525.697 542.622 534.127 541.862 547.477C540.452 572.137 537.992 550.867 535.522 559.517C528.662 555.297 521.142 550.877 513.102 546.337C511.652 545.517 510.189 544.693 508.712 543.867C492.632 534.897 474.672 525.497 455.922 516.187C455.182 515.817 454.432 515.447 453.692 515.087C410.742 493.857 363.862 473.207 325.882 459.427C318.552 456.767 311.552 454.367 304.972 452.257C291.112 447.827 279.132 444.727 269.912 443.387C260.312 441.987 253.682 442.487 251.002 445.377C250.902 443.337 250.799 441.383 250.692 439.517C250.652 438.897 250.612 438.287 250.572 437.687C250.634 437.522 250.714 437.365 250.792 437.207C250.803 437.183 250.811 437.16 250.822 437.137C250.841 437.085 250.865 437.035 250.892 436.987C250.922 436.925 250.955 436.865 250.992 436.807C251.025 436.736 251.065 436.669 251.112 436.607C251.202 436.467 251.302 436.317 251.412 436.177C251.493 436.072 251.58 435.972 251.672 435.877C251.703 435.829 251.74 435.785 251.782 435.747C251.822 435.707 251.862 435.657 251.912 435.607C251.934 435.575 251.961 435.548 251.992 435.527C252.071 435.436 252.158 435.352 252.252 435.277C252.609 434.948 252.99 434.648 253.392 434.377C253.532 434.287 253.682 434.197 253.822 434.097C254.83 433.494 255.891 432.985 256.992 432.577C257.372 432.437 257.752 432.307 258.162 432.167C258.312 432.127 258.452 432.077 258.602 432.027C258.822 431.957 259.042 431.887 259.272 431.837C260.412 431.497 261.642 431.207 262.972 430.937C263.372 430.857 263.792 430.777 264.212 430.707C264.552 430.647 264.902 430.587 265.252 430.527C268.222 430.057 271.592 429.707 275.312 429.477C275.662 429.457 276.012 429.437 276.362 429.417C276.772 429.397 277.182 429.377 277.602 429.357C277.952 429.337 278.312 429.327 278.672 429.317C279.022 429.297 279.382 429.287 279.752 429.277C280.762 429.247 281.802 429.217 282.862 429.197C285.882 429.147 289.062 429.167 292.402 429.237C293.952 429.267 295.532 429.317 297.152 429.387C297.252 429.387 297.362 429.397 297.462 429.397C298.872 429.437 300.302 429.507 301.752 429.577C302.772 429.627 303.802 429.677 304.832 429.737C305.802 429.797 306.782 429.857 307.772 429.927C308.542 429.967 309.312 430.027 310.092 430.077C310.752 430.127 311.412 430.177 312.072 430.217C312.862 430.277 313.652 430.337 314.452 430.397C315.552 430.487 316.652 430.577 317.772 430.667C318.882 430.767 320.012 430.867 321.142 430.967C322.272 431.067 323.412 431.177 324.552 431.287C324.672 431.297 324.782 431.307 324.892 431.317C325.932 431.427 326.972 431.527 328.022 431.637C333.842 432.227 339.832 432.917 345.992 433.707C349.672 434.177 353.399 434.68 357.172 435.217C362.902 436.027 368.722 436.907 374.582 437.847C380.452 438.797 386.356 439.8 392.292 440.857C393.792 441.127 395.292 441.397 396.802 441.677C398.642 442.017 400.482 442.363 402.322 442.717C403.482 442.937 404.642 443.157 405.802 443.387C407.182 443.657 408.572 443.927 409.952 444.197C419.042 445.997 428.082 447.917 436.902 449.927C438.352 450.257 439.802 450.597 441.242 450.927C444.122 451.597 446.976 452.277 449.802 452.967C450.582 453.157 451.352 453.347 452.122 453.537C454.052 454.017 455.962 454.497 457.852 454.977V454.987C457.962 455.007 458.072 455.037 458.182 455.067C459.562 455.417 460.932 455.767 462.292 456.127C465.502 456.967 468.659 457.813 471.762 458.667C473.822 459.247 475.862 459.817 477.872 460.397C480.882 461.277 483.832 462.157 486.702 463.037C487.412 463.257 488.122 463.477 488.822 463.687C490.922 464.347 492.982 465.003 495.002 465.657C496.602 466.177 498.162 466.707 499.702 467.237C501.242 467.767 502.752 468.297 504.232 468.827C505.192 469.167 506.132 469.517 507.062 469.857C508.422 470.357 509.742 470.857 511.042 471.367C511.442 471.517 511.832 471.677 512.222 471.827C512.952 472.107 513.662 472.397 514.362 472.687C514.832 472.867 515.292 473.057 515.752 473.257C516.202 473.437 516.662 473.627 517.102 473.817C517.552 473.997 517.992 474.187 518.432 474.387C518.802 474.537 519.162 474.697 519.512 474.857C520.222 475.167 520.932 475.477 521.622 475.797C521.962 475.957 522.302 476.107 522.642 476.267L523.422 476.627C523.532 476.687 523.642 476.737 523.752 476.787C524.602 477.187 525.422 477.587 526.222 477.987C526.972 478.367 527.702 478.747 528.402 479.117C529.232 479.557 530.022 479.987 530.782 480.427C530.932 480.507 531.082 480.597 531.232 480.677C531.742 480.967 532.232 481.267 532.722 481.557C533.682 482.147 534.592 482.727 535.442 483.307C536.282 483.887 537.062 484.457 537.792 485.027C537.792 485.037 537.792 485.037 537.802 485.037C538.152 485.317 538.492 485.597 538.812 485.867C539.332 486.317 539.812 486.747 540.252 487.187C540.4 487.322 540.54 487.466 540.672 487.617C540.73 487.665 540.784 487.718 540.832 487.777C541.042 488.007 541.252 488.237 541.452 488.467C541.692 488.747 541.912 489.027 542.122 489.307C542.222 489.447 542.332 489.587 542.422 489.727C542.542 489.897 542.662 490.077 542.762 490.247C542.852 490.387 542.932 490.537 543.012 490.677C543.225 491.037 543.405 491.415 543.552 491.807C543.662 492.073 543.752 492.347 543.822 492.627C543.898 492.892 543.955 493.163 543.992 493.437Z" fill="black"/>
</svg>
