<svg width="787" height="605" viewBox="0 0 787 605" fill="none" xmlns="http://www.w3.org/2000/svg">
<g clip-path="url(#clip0_2_398)">
<path d="M458.321 133.882C473.068 133.882 485.022 121.928 485.022 107.182C485.022 92.4352 473.068 80.4809 458.321 80.4809C443.575 80.4809 431.621 92.4352 431.621 107.182C431.621 121.928 443.575 133.882 458.321 133.882Z" fill="#BEBEBA"/>
<path d="M665.448 530.152C705.135 499.923 724.091 449.126 712.224 400.67C711.929 399.466 711.618 398.264 711.29 397.066C703.423 368.302 683.959 340.965 655.59 331.774C631.771 324.058 605.771 329.992 580.921 326.923C532.139 320.899 494.32 281.429 467.71 240.104C441.099 198.778 420.648 152.52 385.288 118.38C327.003 62.1042 231.926 49.9881 159.661 86.6191C87.3967 123.25 41.3649 204.519 43.328 285.514C45.2912 366.509 93.3743 443.946 163.203 485.031C188.855 500.124 218.524 510.817 248.051 507.075C273.671 503.829 296.95 490.063 322.45 485.976C362.541 479.55 402.377 497.676 437.052 518.799C471.728 539.922 505.223 564.959 544.627 574.752C582.888 584.26 630.29 556.93 665.448 530.152Z" fill="#F2F2F2"/>
<path d="M608.426 88.3199C607.556 87.7399 606.676 87.1899 605.806 86.6299C580.657 70.5457 553.701 57.4791 525.496 47.6999L518.956 137.92H477.496V34.5299C474.886 33.9899 472.256 33.4799 469.626 32.9999V137.92H420.356C393.232 137.92 367.219 127.145 348.04 107.966C328.861 88.7865 318.086 62.7737 318.086 35.6501V35.65C315.446 36.22 312.826 36.83 310.206 37.48V137.92H270.076L263.846 51.89C234.861 63.0062 207.343 77.6247 181.906 95.42C181.466 95.72 181.026 96.03 180.596 96.33C178.386 97.88 176.206 99.46 174.036 101.06V445.25H292.306L290.216 416.3L278.716 257.35H510.306L498.806 416.3L496.716 445.25H613.676V91.8C611.936 90.62 610.186 89.46 608.426 88.3199ZM310.206 231.1H276.816L270.646 145.8H310.206V231.1ZM469.626 231.1H413.546V229.41C413.546 228.598 413.386 227.793 413.075 227.043C412.763 226.292 412.307 225.61 411.732 225.036C411.157 224.462 410.475 224.007 409.724 223.697C408.973 223.387 408.168 223.229 407.356 223.23H382.976C382.164 223.23 381.361 223.389 380.611 223.7C379.861 224.01 379.179 224.465 378.605 225.039C378.031 225.613 377.576 226.295 377.266 227.045C376.955 227.795 376.796 228.598 376.796 229.41V231.1H318.086V145.8H469.626V231.1ZM477.496 231.1V145.8H518.386L512.216 231.1H477.496Z" fill="#091B29"/>
<path d="M0 467.291C8.68725 477.584 18.0835 487.258 28.12 496.241L758.7 497.241C768.736 488.258 778.133 478.584 786.82 468.291L0 467.291Z" fill="#091B29"/>
<path d="M495.43 374.591V460.295C495.431 461.387 495.865 462.435 496.637 463.207C497.41 463.979 498.457 464.414 499.549 464.414H626.553C627.646 464.414 628.693 463.979 629.465 463.207C630.237 462.435 630.672 461.387 630.673 460.295V374.591C630.67 373.5 630.235 372.454 629.463 371.683C628.691 370.912 627.645 370.478 626.553 370.477H499.549C498.458 370.478 497.412 370.912 496.639 371.683C495.867 372.454 495.433 373.5 495.43 374.591V374.591Z" fill="#091B29"/>
<path d="M498.409 375.658V459.238C498.41 459.822 498.643 460.381 499.055 460.794C499.468 461.206 500.027 461.438 500.611 461.439H625.496C626.08 461.438 626.639 461.206 627.052 460.794C627.464 460.381 627.697 459.822 627.698 459.238V375.658C627.698 375.073 627.466 374.513 627.053 374.099C626.64 373.686 626.081 373.453 625.496 373.452H500.611C500.027 373.453 499.467 373.686 499.054 374.099C498.641 374.513 498.409 375.073 498.409 375.658V375.658Z" fill="#6366F1"/>
<path d="M492.774 477.01C493.006 477.302 493.302 477.537 493.639 477.698C493.975 477.859 494.344 477.942 494.717 477.94H630.709C631.081 477.939 631.448 477.856 631.784 477.696C632.119 477.536 632.415 477.303 632.649 477.014C632.884 476.725 633.051 476.387 633.138 476.026C633.226 475.664 633.232 475.288 633.155 474.924L631.044 464.897C630.957 464.488 630.768 464.107 630.496 463.79C630.224 463.472 629.877 463.228 629.486 463.079C629.203 462.968 628.902 462.911 628.598 462.912H496.82C496.516 462.911 496.215 462.968 495.932 463.079C495.541 463.228 495.194 463.472 494.922 463.79C494.65 464.107 494.461 464.488 494.374 464.897L492.263 474.924C492.188 475.288 492.195 475.664 492.283 476.025C492.371 476.385 492.539 476.722 492.774 477.01V477.01Z" fill="#0E1E2C"/>
<path d="M623.932 467.23H627.144C627.414 467.23 627.632 467.012 627.632 466.742V465.205C627.632 464.936 627.414 464.717 627.144 464.717H623.932C623.662 464.717 623.444 464.936 623.444 465.205V466.742C623.444 467.012 623.662 467.23 623.932 467.23Z" fill="#091B29"/>
<path d="M615.555 467.23H618.767C619.037 467.23 619.255 467.012 619.255 466.742V465.205C619.255 464.936 619.037 464.717 618.767 464.717H615.555C615.285 464.717 615.067 464.936 615.067 465.205V466.742C615.067 467.012 615.285 467.23 615.555 467.23Z" fill="#091B29"/>
<path d="M607.178 467.23H610.39C610.66 467.23 610.878 467.012 610.878 466.742V465.205C610.878 464.936 610.66 464.717 610.39 464.717H607.178C606.908 464.717 606.69 464.936 606.69 465.205V466.742C606.69 467.012 606.908 467.23 607.178 467.23Z" fill="#091B29"/>
<path d="M598.801 467.23H602.013C602.283 467.23 602.501 467.012 602.501 466.742V465.205C602.501 464.936 602.283 464.717 602.013 464.717H598.801C598.531 464.717 598.313 464.936 598.313 465.205V466.742C598.313 467.012 598.531 467.23 598.801 467.23Z" fill="#091B29"/>
<path d="M590.424 467.23H593.636C593.906 467.23 594.124 467.012 594.124 466.742V465.205C594.124 464.936 593.906 464.717 593.636 464.717H590.424C590.154 464.717 589.936 464.936 589.936 465.205V466.742C589.936 467.012 590.154 467.23 590.424 467.23Z" fill="#091B29"/>
<path d="M582.047 467.23H585.259C585.529 467.23 585.747 467.012 585.747 466.742V465.205C585.747 464.936 585.529 464.717 585.259 464.717H582.047C581.777 464.717 581.559 464.936 581.559 465.205V466.742C581.559 467.012 581.777 467.23 582.047 467.23Z" fill="#091B29"/>
<path d="M573.67 467.23H576.882C577.152 467.23 577.37 467.012 577.37 466.742V465.205C577.37 464.936 577.152 464.717 576.882 464.717H573.67C573.4 464.717 573.182 464.936 573.182 465.205V466.742C573.182 467.012 573.4 467.23 573.67 467.23Z" fill="#091B29"/>
<path d="M565.293 467.23H568.505C568.775 467.23 568.993 467.012 568.993 466.742V465.205C568.993 464.936 568.775 464.717 568.505 464.717H565.293C565.023 464.717 564.805 464.936 564.805 465.205V466.742C564.805 467.012 565.023 467.23 565.293 467.23Z" fill="#091B29"/>
<path d="M556.916 467.23H560.128C560.398 467.23 560.616 467.012 560.616 466.742V465.205C560.616 464.936 560.398 464.717 560.128 464.717H556.916C556.647 464.717 556.428 464.936 556.428 465.205V466.742C556.428 467.012 556.647 467.23 556.916 467.23Z" fill="#091B29"/>
<path d="M548.539 467.23H551.751C552.021 467.23 552.24 467.012 552.24 466.742V465.205C552.24 464.936 552.021 464.717 551.751 464.717H548.539C548.27 464.717 548.051 464.936 548.051 465.205V466.742C548.051 467.012 548.27 467.23 548.539 467.23Z" fill="#091B29"/>
<path d="M540.162 467.23H543.374C543.644 467.23 543.862 467.012 543.862 466.742V465.205C543.862 464.936 543.644 464.717 543.374 464.717H540.162C539.892 464.717 539.674 464.936 539.674 465.205V466.742C539.674 467.012 539.892 467.23 540.162 467.23Z" fill="#091B29"/>
<path d="M531.785 467.23H534.997C535.267 467.23 535.485 467.012 535.485 466.742V465.205C535.485 464.936 535.267 464.717 534.997 464.717H531.785C531.516 464.717 531.297 464.936 531.297 465.205V466.742C531.297 467.012 531.516 467.23 531.785 467.23Z" fill="#091B29"/>
<path d="M523.408 467.23H526.62C526.89 467.23 527.108 467.012 527.108 466.742V465.205C527.108 464.936 526.89 464.717 526.62 464.717H523.408C523.138 464.717 522.92 464.936 522.92 465.205V466.742C522.92 467.012 523.138 467.23 523.408 467.23Z" fill="#091B29"/>
<path d="M515.031 467.23H518.243C518.513 467.23 518.731 467.012 518.731 466.742V465.205C518.731 464.936 518.513 464.717 518.243 464.717H515.031C514.762 464.717 514.543 464.936 514.543 465.205V466.742C514.543 467.012 514.762 467.23 515.031 467.23Z" fill="#091B29"/>
<path d="M506.654 467.23H509.866C510.136 467.23 510.354 467.012 510.354 466.742V465.205C510.354 464.936 510.136 464.717 509.866 464.717H506.654C506.385 464.717 506.166 464.936 506.166 465.205V466.742C506.166 467.012 506.385 467.23 506.654 467.23Z" fill="#091B29"/>
<path d="M498.277 467.23H501.489C501.759 467.23 501.978 467.012 501.978 466.742V465.205C501.978 464.936 501.759 464.717 501.489 464.717H498.277C498.008 464.717 497.789 464.936 497.789 465.205V466.742C497.789 467.012 498.008 467.23 498.277 467.23Z" fill="#091B29"/>
<path d="M624.031 471.419H627.243C627.513 471.419 627.731 471.2 627.731 470.931V469.394C627.731 469.124 627.513 468.906 627.243 468.906H624.031C623.761 468.906 623.543 469.124 623.543 469.394V470.931C623.543 471.2 623.761 471.419 624.031 471.419Z" fill="#091B29"/>
<path d="M615.654 471.419H618.866C619.136 471.419 619.354 471.2 619.354 470.931V469.394C619.354 469.124 619.136 468.906 618.866 468.906H615.654C615.384 468.906 615.166 469.124 615.166 469.394V470.931C615.166 471.2 615.384 471.419 615.654 471.419Z" fill="#091B29"/>
<path d="M607.277 471.419H610.489C610.759 471.419 610.977 471.2 610.977 470.931V469.394C610.977 469.124 610.759 468.906 610.489 468.906H607.277C607.007 468.906 606.789 469.124 606.789 469.394V470.931C606.789 471.2 607.007 471.419 607.277 471.419Z" fill="#091B29"/>
<path d="M598.9 471.419H602.112C602.382 471.419 602.6 471.2 602.6 470.931V469.394C602.6 469.124 602.382 468.906 602.112 468.906H598.9C598.63 468.906 598.412 469.124 598.412 469.394V470.931C598.412 471.2 598.63 471.419 598.9 471.419Z" fill="#091B29"/>
<path d="M590.523 471.419H593.735C594.005 471.419 594.223 471.2 594.223 470.931V469.394C594.223 469.124 594.005 468.906 593.735 468.906H590.523C590.253 468.906 590.035 469.124 590.035 469.394V470.931C590.035 471.2 590.253 471.419 590.523 471.419Z" fill="#091B29"/>
<path d="M582.146 471.419H585.358C585.628 471.419 585.846 471.2 585.846 470.931V469.394C585.846 469.124 585.628 468.906 585.358 468.906H582.146C581.876 468.906 581.658 469.124 581.658 469.394V470.931C581.658 471.2 581.876 471.419 582.146 471.419Z" fill="#091B29"/>
<path d="M573.769 471.419H576.981C577.251 471.419 577.469 471.2 577.469 470.931V469.394C577.469 469.124 577.251 468.906 576.981 468.906H573.769C573.499 468.906 573.281 469.124 573.281 469.394V470.931C573.281 471.2 573.499 471.419 573.769 471.419Z" fill="#091B29"/>
<path d="M565.392 471.419H568.604C568.874 471.419 569.092 471.2 569.092 470.931V469.394C569.092 469.124 568.874 468.906 568.604 468.906H565.392C565.122 468.906 564.904 469.124 564.904 469.394V470.931C564.904 471.2 565.122 471.419 565.392 471.419Z" fill="#091B29"/>
<path d="M557.015 471.419H560.227C560.497 471.419 560.715 471.2 560.715 470.931V469.394C560.715 469.124 560.497 468.906 560.227 468.906H557.015C556.745 468.906 556.527 469.124 556.527 469.394V470.931C556.527 471.2 556.745 471.419 557.015 471.419Z" fill="#091B29"/>
<path d="M548.638 471.419H551.85C552.12 471.419 552.338 471.2 552.338 470.931V469.394C552.338 469.124 552.12 468.906 551.85 468.906H548.638C548.368 468.906 548.15 469.124 548.15 469.394V470.931C548.15 471.2 548.368 471.419 548.638 471.419Z" fill="#091B29"/>
<path d="M540.261 471.419H543.473C543.743 471.419 543.961 471.2 543.961 470.931V469.394C543.961 469.124 543.743 468.906 543.473 468.906H540.261C539.992 468.906 539.773 469.124 539.773 469.394V470.931C539.773 471.2 539.992 471.419 540.261 471.419Z" fill="#091B29"/>
<path d="M531.884 471.419H535.096C535.366 471.419 535.584 471.2 535.584 470.931V469.394C535.584 469.124 535.366 468.906 535.096 468.906H531.884C531.615 468.906 531.396 469.124 531.396 469.394V470.931C531.396 471.2 531.615 471.419 531.884 471.419Z" fill="#091B29"/>
<path d="M523.507 471.419H526.719C526.989 471.419 527.208 471.2 527.208 470.931V469.394C527.208 469.124 526.989 468.906 526.719 468.906H523.507C523.238 468.906 523.019 469.124 523.019 469.394V470.931C523.019 471.2 523.238 471.419 523.507 471.419Z" fill="#091B29"/>
<path d="M515.13 471.419H518.342C518.612 471.419 518.831 471.2 518.831 470.931V469.394C518.831 469.124 518.612 468.906 518.342 468.906H515.13C514.861 468.906 514.642 469.124 514.642 469.394V470.931C514.642 471.2 514.861 471.419 515.13 471.419Z" fill="#091B29"/>
<path d="M506.753 471.419H509.965C510.235 471.419 510.453 471.2 510.453 470.931V469.394C510.453 469.124 510.235 468.906 509.965 468.906H506.753C506.484 468.906 506.265 469.124 506.265 469.394V470.931C506.265 471.2 506.484 471.419 506.753 471.419Z" fill="#091B29"/>
<path d="M498.376 471.419H501.588C501.858 471.419 502.077 471.2 502.077 470.931V469.394C502.077 469.124 501.858 468.906 501.588 468.906H498.376C498.107 468.906 497.888 469.124 497.888 469.394V470.931C497.888 471.2 498.107 471.419 498.376 471.419Z" fill="#091B29"/>
<path d="M554.502 476.445H587.034C587.303 476.445 587.522 476.226 587.522 475.957V474.42C587.522 474.151 587.303 473.932 587.034 473.932H554.502C554.232 473.932 554.014 474.151 554.014 474.42V475.957C554.014 476.226 554.232 476.445 554.502 476.445Z" fill="#091B29"/>
<path d="M520.036 391.737H517.192C516.33 391.737 515.631 392.436 515.631 393.298C515.631 394.16 516.33 394.859 517.192 394.859H520.036C520.898 394.859 521.597 394.16 521.597 393.298C521.597 392.436 520.898 391.737 520.036 391.737Z" fill="white"/>
<path d="M552.559 391.737H549.715C548.853 391.737 548.154 392.436 548.154 393.298C548.154 394.16 548.853 394.859 549.715 394.859H552.559C553.421 394.859 554.12 394.16 554.12 393.298C554.12 392.436 553.421 391.737 552.559 391.737Z" fill="white"/>
<path d="M561.774 391.737H558.93C558.068 391.737 557.369 392.436 557.369 393.298C557.369 394.16 558.068 394.859 558.93 394.859H561.774C562.636 394.859 563.335 394.16 563.335 393.298C563.335 392.436 562.636 391.737 561.774 391.737Z" fill="white"/>
<path d="M543.712 391.477H526.039C525.176 391.477 524.477 392.176 524.477 393.038C524.477 393.9 525.176 394.599 526.039 394.599H543.712C544.575 394.599 545.274 393.9 545.274 393.038C545.274 392.176 544.575 391.477 543.712 391.477Z" fill="white"/>
<path d="M587.076 391.477H569.403C568.54 391.477 567.841 392.176 567.841 393.038C567.841 393.9 568.54 394.599 569.403 394.599H587.076C587.939 394.599 588.638 393.9 588.638 393.038C588.638 392.176 587.939 391.477 587.076 391.477Z" fill="white"/>
<path d="M528.709 398.784H525.865C525.003 398.784 524.304 399.483 524.304 400.345C524.304 401.207 525.003 401.906 525.865 401.906H528.709C529.571 401.906 530.27 401.207 530.27 400.345C530.27 399.483 529.571 398.784 528.709 398.784Z" fill="white"/>
<path d="M561.232 398.784H558.388C557.526 398.784 556.827 399.483 556.827 400.345C556.827 401.207 557.526 401.906 558.388 401.906H561.232C562.094 401.906 562.793 401.207 562.793 400.345C562.793 399.483 562.094 398.784 561.232 398.784Z" fill="white"/>
<path d="M570.446 398.784H567.603C566.741 398.784 566.042 399.483 566.042 400.345C566.042 401.207 566.741 401.906 567.603 401.906H570.446C571.309 401.906 572.008 401.207 572.008 400.345C572.008 399.483 571.309 398.784 570.446 398.784Z" fill="white"/>
<path d="M552.385 398.523H534.711C533.849 398.523 533.15 399.222 533.15 400.085C533.15 400.947 533.849 401.646 534.711 401.646H552.385C553.247 401.646 553.946 400.947 553.946 400.085C553.946 399.222 553.247 398.523 552.385 398.523Z" fill="white"/>
<path d="M595.749 398.523H578.075C577.213 398.523 576.514 399.222 576.514 400.085C576.514 400.947 577.213 401.646 578.075 401.646H595.749C596.611 401.646 597.31 400.947 597.31 400.085C597.31 399.222 596.611 398.523 595.749 398.523Z" fill="white"/>
<path d="M537.381 405.83H534.538C533.676 405.83 532.977 406.529 532.977 407.391C532.977 408.254 533.676 408.953 534.538 408.953H537.381C538.244 408.953 538.943 408.254 538.943 407.391C538.943 406.529 538.244 405.83 537.381 405.83Z" fill="white"/>
<path d="M569.904 405.83H567.061C566.199 405.83 565.5 406.529 565.5 407.391C565.5 408.254 566.199 408.953 567.061 408.953H569.904C570.767 408.953 571.466 408.254 571.466 407.391C571.466 406.529 570.767 405.83 569.904 405.83Z" fill="white"/>
<path d="M579.119 405.83H576.276C575.414 405.83 574.715 406.529 574.715 407.391C574.715 408.254 575.414 408.953 576.276 408.953H579.119C579.982 408.953 580.68 408.254 580.68 407.391C580.68 406.529 579.982 405.83 579.119 405.83Z" fill="white"/>
<path d="M561.058 405.57H543.384C542.522 405.57 541.823 406.269 541.823 407.131C541.823 407.993 542.522 408.692 543.384 408.692H561.058C561.92 408.692 562.619 407.993 562.619 407.131C562.619 406.269 561.92 405.57 561.058 405.57Z" fill="white"/>
<path d="M604.422 405.57H586.748C585.886 405.57 585.187 406.269 585.187 407.131C585.187 407.993 585.886 408.692 586.748 408.692H604.422C605.284 408.692 605.983 407.993 605.983 407.131C605.983 406.269 605.284 405.57 604.422 405.57Z" fill="white"/>
<path d="M546.054 412.877H543.211C542.348 412.877 541.649 413.576 541.649 414.438C541.649 415.3 542.348 415.999 543.211 415.999H546.054C546.916 415.999 547.615 415.3 547.615 414.438C547.615 413.576 546.916 412.877 546.054 412.877Z" fill="white"/>
<path d="M578.577 412.877H575.734C574.871 412.877 574.172 413.576 574.172 414.438C574.172 415.3 574.871 415.999 575.734 415.999H578.577C579.439 415.999 580.138 415.3 580.138 414.438C580.138 413.576 579.439 412.877 578.577 412.877Z" fill="white"/>
<path d="M587.792 412.877H584.948C584.086 412.877 583.387 413.576 583.387 414.438C583.387 415.3 584.086 415.999 584.948 415.999H587.792C588.654 415.999 589.353 415.3 589.353 414.438C589.353 413.576 588.654 412.877 587.792 412.877Z" fill="white"/>
<path d="M569.731 412.617H552.057C551.195 412.617 550.496 413.316 550.496 414.178C550.496 415.04 551.195 415.739 552.057 415.739H569.731C570.593 415.739 571.292 415.04 571.292 414.178C571.292 413.316 570.593 412.617 569.731 412.617Z" fill="white"/>
<path d="M552.559 440.898H549.715C548.853 440.898 548.154 441.596 548.154 442.459C548.154 443.321 548.853 444.02 549.715 444.02H552.559C553.421 444.02 554.12 443.321 554.12 442.459C554.12 441.596 553.421 440.898 552.559 440.898Z" fill="white"/>
<path d="M561.774 440.898H558.93C558.068 440.898 557.369 441.596 557.369 442.459C557.369 443.321 558.068 444.02 558.93 444.02H561.774C562.636 444.02 563.335 443.321 563.335 442.459C563.335 441.596 562.636 440.898 561.774 440.898Z" fill="white"/>
<path d="M587.076 441.158H569.403C568.54 441.158 567.841 441.857 567.841 442.719C567.841 443.581 568.54 444.28 569.403 444.28H587.076C587.939 444.28 588.638 443.581 588.638 442.719C588.638 441.857 587.939 441.158 587.076 441.158Z" fill="white"/>
<path d="M520.036 440.898H517.192C516.33 440.898 515.631 441.596 515.631 442.459C515.631 443.321 516.33 444.02 517.192 444.02H520.036C520.898 444.02 521.597 443.321 521.597 442.459C521.597 441.596 520.898 440.898 520.036 440.898Z" fill="white"/>
<path d="M543.712 441.158H526.039C525.176 441.158 524.477 441.857 524.477 442.719C524.477 443.581 525.176 444.28 526.039 444.28H543.712C544.575 444.28 545.274 443.581 545.274 442.719C545.274 441.857 544.575 441.158 543.712 441.158Z" fill="white"/>
<path d="M528.709 433.851H525.865C525.003 433.851 524.304 434.55 524.304 435.412C524.304 436.274 525.003 436.973 525.865 436.973H528.709C529.571 436.973 530.27 436.274 530.27 435.412C530.27 434.55 529.571 433.851 528.709 433.851Z" fill="white"/>
<path d="M561.232 433.851H558.388C557.526 433.851 556.827 434.55 556.827 435.412C556.827 436.274 557.526 436.973 558.388 436.973H561.232C562.094 436.973 562.793 436.274 562.793 435.412C562.793 434.55 562.094 433.851 561.232 433.851Z" fill="white"/>
<path d="M570.446 433.851H567.603C566.741 433.851 566.042 434.55 566.042 435.412C566.042 436.274 566.741 436.973 567.603 436.973H570.446C571.309 436.973 572.008 436.274 572.008 435.412C572.008 434.55 571.309 433.851 570.446 433.851Z" fill="white"/>
<path d="M552.385 434.111H534.711C533.849 434.111 533.15 434.81 533.15 435.672C533.15 436.534 533.849 437.233 534.711 437.233H552.385C553.247 437.233 553.946 436.534 553.946 435.672C553.946 434.81 553.247 434.111 552.385 434.111Z" fill="white"/>
<path d="M537.381 426.804H534.538C533.676 426.804 532.977 427.503 532.977 428.365C532.977 429.227 533.676 429.926 534.538 429.926H537.381C538.244 429.926 538.943 429.227 538.943 428.365C538.943 427.503 538.244 426.804 537.381 426.804Z" fill="white"/>
<path d="M569.904 426.804H567.061C566.199 426.804 565.5 427.503 565.5 428.365C565.5 429.227 566.199 429.926 567.061 429.926H569.904C570.767 429.926 571.466 429.227 571.466 428.365C571.466 427.503 570.767 426.804 569.904 426.804Z" fill="white"/>
<path d="M579.119 426.804H576.276C575.414 426.804 574.715 427.503 574.715 428.365C574.715 429.227 575.414 429.926 576.276 429.926H579.119C579.982 429.926 580.68 429.227 580.68 428.365C580.68 427.503 579.982 426.804 579.119 426.804Z" fill="white"/>
<path d="M561.058 427.064H543.384C542.522 427.064 541.823 427.763 541.823 428.626C541.823 429.488 542.522 430.187 543.384 430.187H561.058C561.92 430.187 562.619 429.488 562.619 428.626C562.619 427.763 561.92 427.064 561.058 427.064Z" fill="white"/>
<path d="M546.054 419.758H543.211C542.348 419.758 541.649 420.457 541.649 421.319C541.649 422.181 542.348 422.88 543.211 422.88H546.054C546.916 422.88 547.615 422.181 547.615 421.319C547.615 420.457 546.916 419.758 546.054 419.758Z" fill="white"/>
<path d="M578.577 419.758H575.734C574.871 419.758 574.172 420.457 574.172 421.319C574.172 422.181 574.871 422.88 575.734 422.88H578.577C579.439 422.88 580.138 422.181 580.138 421.319C580.138 420.457 579.439 419.758 578.577 419.758Z" fill="white"/>
<path d="M587.792 419.758H584.948C584.086 419.758 583.387 420.457 583.387 421.319C583.387 422.181 584.086 422.88 584.948 422.88H587.792C588.654 422.88 589.353 422.181 589.353 421.319C589.353 420.457 588.654 419.758 587.792 419.758Z" fill="white"/>
<path d="M569.731 420.018H552.057C551.195 420.018 550.496 420.717 550.496 421.579C550.496 422.441 551.195 423.14 552.057 423.14H569.731C570.593 423.14 571.292 422.441 571.292 421.579C571.292 420.717 570.593 420.018 569.731 420.018Z" fill="white"/>
<path d="M504.917 523.482L491.568 502.38L533.47 468.977L550.765 449.816C553.012 447.327 555.873 445.471 559.062 444.433C562.251 443.396 565.656 443.214 568.938 443.905C572.22 444.596 575.262 446.136 577.762 448.372C580.262 450.607 582.131 453.46 583.183 456.644C584.742 461.363 584.407 466.502 582.248 470.979C580.089 475.455 576.276 478.917 571.613 480.635L544.264 490.71L504.917 523.482Z" fill="#FFB6B6"/>
<path d="M191.69 370.481V473.041H263.54V370.481C263.541 369.743 263.306 369.025 262.868 368.431C262.431 367.837 261.815 367.399 261.11 367.181C260.778 367.071 260.43 367.017 260.08 367.021H195.16C194.705 367.02 194.254 367.109 193.833 367.282C193.413 367.456 193.03 367.71 192.708 368.032C192.386 368.353 192.13 368.735 191.955 369.155C191.78 369.575 191.69 370.026 191.69 370.481V370.481ZM219.73 405.721C219.749 403.699 220.565 401.766 222.001 400.343C223.438 398.92 225.378 398.122 227.4 398.122C229.422 398.122 231.362 398.92 232.798 400.343C234.235 401.766 235.051 403.699 235.07 405.721V417.621C235.06 419.648 234.247 421.589 232.81 423.019C231.372 424.449 229.427 425.252 227.4 425.252C225.372 425.252 223.428 424.449 221.99 423.019C220.553 421.589 219.74 419.648 219.73 417.621V405.721Z" fill="#0E1E2C"/>
<path d="M191.47 469.761V479.651C191.472 480.163 191.675 480.654 192.036 481.017C192.398 481.381 192.888 481.587 193.4 481.591H261.83C262.343 481.588 262.834 481.383 263.195 481.019C263.557 480.656 263.76 480.164 263.76 479.651V469.761H191.47Z" fill="#091B29"/>
<path d="M78.6599 215.961V403.221C78.6618 405.607 79.6106 407.895 81.298 409.583C82.9855 411.27 85.2735 412.219 87.6599 412.221H365.16C367.546 412.219 369.834 411.27 371.522 409.583C373.209 407.895 374.158 405.607 374.16 403.221V215.961C374.154 213.577 373.204 211.292 371.517 209.607C369.83 207.922 367.544 206.974 365.16 206.971H87.6599C85.2756 206.974 82.9897 207.922 81.3028 209.607C79.6159 211.292 78.6656 213.577 78.6599 215.961Z" fill="#091B29"/>
<path d="M85.1699 218.291V400.911C85.1721 402.186 85.6796 403.408 86.5811 404.31C87.4827 405.211 88.7049 405.719 89.9799 405.721H362.85C364.125 405.719 365.347 405.211 366.249 404.31C367.15 403.408 367.658 402.186 367.66 400.911V218.291C367.66 217.014 367.153 215.79 366.252 214.886C365.35 213.983 364.126 213.474 362.85 213.471H89.9799C88.7034 213.474 87.48 213.983 86.5783 214.886C85.6765 215.79 85.1701 217.014 85.1699 218.291Z" fill="white"/>
<path d="M135.81 480.921C136.088 481.269 136.441 481.55 136.843 481.742C137.244 481.934 137.685 482.033 138.13 482.031H300.47C300.914 482.03 301.352 481.931 301.753 481.74C302.154 481.548 302.507 481.27 302.786 480.925C303.066 480.581 303.265 480.178 303.37 479.746C303.474 479.315 303.481 478.865 303.39 478.431L300.87 466.461C300.765 465.973 300.541 465.518 300.216 465.139C299.891 464.76 299.476 464.469 299.01 464.291C298.672 464.158 298.313 464.09 297.95 464.091H140.64C140.277 464.09 139.918 464.158 139.58 464.291C139.114 464.469 138.699 464.76 138.374 465.139C138.049 465.518 137.824 465.973 137.72 466.461L135.2 478.431C135.11 478.865 135.119 479.314 135.224 479.745C135.33 480.175 135.53 480.577 135.81 480.921Z" fill="#0E1E2C"/>
<path d="M353.995 238.628H98.6711C98.4058 238.622 98.1532 238.512 97.9676 238.322C97.782 238.133 97.6781 237.878 97.6781 237.612C97.6781 237.347 97.782 237.092 97.9676 236.902C98.1532 236.712 98.4058 236.603 98.6711 236.597H353.995C354.26 236.603 354.512 236.712 354.698 236.902C354.884 237.092 354.988 237.347 354.988 237.612C354.988 237.878 354.884 238.133 354.698 238.322C354.512 238.512 354.26 238.622 353.995 238.628V238.628Z" fill="#091B29"/>
<path d="M116.051 231.413C119.338 231.413 122.002 228.689 122.002 225.33C122.002 221.97 119.338 219.247 116.051 219.247C112.765 219.247 110.101 221.97 110.101 225.33C110.101 228.689 112.765 231.413 116.051 231.413Z" fill="#091B29"/>
<path d="M136.607 231.413C139.894 231.413 142.558 228.689 142.558 225.33C142.558 221.97 139.894 219.247 136.607 219.247C133.321 219.247 130.657 221.97 130.657 225.33C130.657 228.689 133.321 231.413 136.607 231.413Z" fill="#091B29"/>
<path d="M157.163 231.413C160.45 231.413 163.114 228.689 163.114 225.33C163.114 221.97 160.45 219.247 157.163 219.247C153.877 219.247 151.213 221.97 151.213 225.33C151.213 228.689 153.877 231.413 157.163 231.413Z" fill="#091B29"/>
<path d="M341.616 220.751H327.016C326.728 220.758 326.453 220.877 326.251 221.083C326.05 221.29 325.937 221.567 325.937 221.856C325.937 222.145 326.05 222.422 326.251 222.628C326.453 222.835 326.728 222.954 327.016 222.961H341.616C341.907 222.957 342.184 222.839 342.388 222.632C342.592 222.425 342.706 222.146 342.706 221.856C342.706 221.565 342.592 221.287 342.388 221.08C342.184 220.873 341.907 220.755 341.616 220.751Z" fill="#091B29"/>
<path d="M341.616 224.901H327.016C326.728 224.907 326.453 225.027 326.251 225.233C326.049 225.44 325.936 225.717 325.936 226.006C325.936 226.295 326.049 226.572 326.251 226.779C326.453 226.985 326.728 227.104 327.016 227.111H341.616C341.907 227.107 342.185 226.989 342.389 226.783C342.594 226.576 342.708 226.297 342.708 226.006C342.708 225.715 342.594 225.436 342.389 225.229C342.185 225.022 341.907 224.904 341.616 224.901V224.901Z" fill="#091B29"/>
<path d="M341.616 229.051H327.016C326.728 229.058 326.453 229.177 326.251 229.383C326.05 229.59 325.937 229.867 325.937 230.156C325.937 230.444 326.05 230.722 326.251 230.928C326.453 231.135 326.728 231.254 327.016 231.261H341.616C341.907 231.257 342.184 231.138 342.388 230.932C342.592 230.725 342.706 230.446 342.706 230.156C342.706 229.865 342.592 229.587 342.388 229.38C342.184 229.173 341.907 229.055 341.616 229.051V229.051Z" fill="#091B29"/>
<path d="M693.596 474.101C694.036 475.384 694.872 476.494 695.983 477.272C697.094 478.05 698.423 478.457 699.779 478.432L726.271 477.75C727.637 477.724 728.957 477.256 730.035 476.416C731.113 475.577 731.891 474.411 732.251 473.093L736 433.006C737.33 433.609 738.778 433.906 740.238 433.877C741.507 433.845 742.756 433.564 743.916 433.049C745.076 432.534 746.122 431.796 746.997 430.877C747.871 429.957 748.556 428.875 749.012 427.691C749.468 426.507 749.686 425.245 749.654 423.976C749.622 422.708 749.341 421.458 748.826 420.299C748.311 419.139 747.573 418.092 746.654 417.218C745.734 416.344 744.652 415.659 743.468 415.203C742.284 414.747 741.022 414.529 739.753 414.56C739.17 414.559 738.588 414.619 738.017 414.741C737.397 414.07 736.642 413.536 735.803 413.173C734.963 412.811 734.057 412.629 733.143 412.638L692.393 413.69C692.055 413.703 691.718 413.745 691.387 413.815C690.494 413.982 689.646 414.338 688.902 414.859C688.157 415.381 687.533 416.056 687.071 416.839C686.61 417.622 686.321 418.495 686.225 419.399C686.129 420.303 686.227 421.217 686.514 422.08L693.596 474.101ZM736.769 430.284L739.437 420.732C739.74 419.628 739.747 418.464 739.457 417.357C739.587 417.357 739.701 417.295 739.83 417.295C741.659 417.257 743.429 417.946 744.751 419.211C746.072 420.476 746.839 422.213 746.882 424.042C746.924 425.871 746.24 427.643 744.979 428.968C743.718 430.293 741.983 431.064 740.154 431.112C738.971 431.149 737.801 430.863 736.769 430.284Z" fill="#0E1E2C"/>
<path d="M691.387 413.815C692.256 418.779 702.017 422.269 713.753 421.662C724.546 421.165 733.371 417.375 734.987 412.884C734.389 412.707 733.767 412.624 733.143 412.638L692.393 413.69C692.055 413.703 691.718 413.744 691.387 413.815V413.815Z" fill="#091B29"/>
<path d="M715.904 452.073C715.958 452.059 716.009 452.037 716.055 452.007L721.808 448.241C721.878 448.196 721.935 448.134 721.975 448.061C722.014 447.988 722.035 447.906 722.035 447.823C722.035 447.74 722.014 447.658 721.975 447.585C721.935 447.512 721.878 447.45 721.809 447.405L715.829 443.488C715.774 443.452 715.713 443.427 715.648 443.414C715.583 443.402 715.517 443.402 715.452 443.415C715.388 443.429 715.327 443.454 715.272 443.491C715.218 443.528 715.171 443.576 715.135 443.631C715.099 443.686 715.074 443.747 715.062 443.812C715.05 443.877 715.051 443.943 715.064 444.008C715.078 444.072 715.104 444.133 715.141 444.187C715.178 444.242 715.226 444.288 715.281 444.324L720.622 447.822L715.508 451.17C715.409 451.235 715.336 451.333 715.302 451.446C715.269 451.559 715.276 451.681 715.324 451.789C715.371 451.898 715.456 451.986 715.562 452.038C715.668 452.089 715.79 452.102 715.904 452.073H715.904Z" fill="#6366F1"/>
<path d="M706.818 452.492C706.914 452.468 707.001 452.415 707.068 452.341C707.134 452.266 707.177 452.174 707.19 452.075C707.204 451.977 707.188 451.876 707.144 451.787C707.1 451.698 707.03 451.623 706.944 451.574L701.641 448.533L706.766 444.726C706.819 444.687 706.863 444.638 706.897 444.582C706.931 444.525 706.953 444.463 706.963 444.398C706.972 444.333 706.969 444.267 706.953 444.203C706.937 444.14 706.908 444.08 706.869 444.027C706.83 443.974 706.781 443.93 706.725 443.896C706.668 443.863 706.606 443.84 706.541 443.831C706.476 443.821 706.41 443.825 706.346 443.841C706.283 443.857 706.223 443.885 706.17 443.924L700.432 448.187C700.365 448.236 700.312 448.301 700.276 448.377C700.241 448.452 700.225 448.535 700.23 448.617C700.235 448.7 700.261 448.781 700.304 448.851C700.348 448.922 700.409 448.98 700.481 449.021L706.446 452.441C706.559 452.506 706.692 452.524 706.818 452.492V452.492Z" fill="#6366F1"/>
<path d="M715.332 455.373C715.381 455.361 715.427 455.341 715.469 455.315C715.525 455.281 715.574 455.236 715.613 455.183C715.652 455.13 715.68 455.07 715.695 455.006C715.711 454.942 715.714 454.876 715.704 454.811C715.694 454.746 715.671 454.684 715.637 454.628L707.481 441.22C707.412 441.107 707.301 441.026 707.172 440.994C707.043 440.963 706.907 440.985 706.794 441.054C706.681 441.123 706.6 441.234 706.568 441.362C706.537 441.491 706.558 441.627 706.627 441.74L714.782 455.149C714.838 455.24 714.921 455.311 715.02 455.351C715.119 455.392 715.229 455.399 715.332 455.373Z" fill="#6366F1"/>
<path d="M256.84 293.827H212.649C210.846 293.827 209.385 295.289 209.385 297.091V301.409C209.385 303.211 210.846 304.673 212.649 304.673H256.84C258.642 304.673 260.104 303.211 260.104 301.409V297.091C260.104 295.289 258.642 293.827 256.84 293.827Z" fill="#6366F1"/>
<path d="M282.598 315.519H186.89C185.087 315.519 183.626 316.98 183.626 318.783V323.1C183.626 324.903 185.087 326.364 186.89 326.364H282.598C284.401 326.364 285.862 324.903 285.862 323.1V318.783C285.862 316.98 284.401 315.519 282.598 315.519Z" fill="#E6E6E6"/>
<path d="M282.598 337.21H186.89C185.087 337.21 183.626 338.671 183.626 340.474V344.791C183.626 346.594 185.087 348.056 186.89 348.056H282.598C284.401 348.056 285.862 346.594 285.862 344.791V340.474C285.862 338.671 284.401 337.21 282.598 337.21Z" fill="#E6E6E6"/>
<path d="M290.711 409.846L290.928 410.53L290.939 410.553L297.464 430.391L304.971 453.252L319.093 496.213L319.23 502.887V502.91L320.28 556.594L317.371 563.872L320.645 575.805C320.645 575.805 319.139 557.768 311.062 568.126C306.488 574.012 301.138 580.035 296.746 585.682C303.146 588.272 309.648 590.614 316.253 592.709C317.679 593.166 319.116 593.599 320.554 594.033C320.862 594.124 321.17 594.215 321.478 594.306C343.372 600.781 366.008 604.42 388.829 605.132C390.015 605.167 391.179 605.189 392.308 605.212C392.707 605.224 393.095 605.235 393.483 605.235C394.761 605.246 396.027 605.258 397.304 605.258C399.883 605.258 402.449 605.22 405.005 605.144C423.918 604.611 442.721 602.068 461.096 597.558C460.971 589.971 460.628 581.108 460.138 571.639C459.91 566.996 454.788 561.966 454.48 557.106C454.263 553.456 458.86 550.022 458.621 546.314C457.069 523.488 455.13 532.25 453.693 516.085C453.544 514.5 453.407 512.983 453.282 511.534C452.358 501.153 451.719 494.662 451.719 494.662L457.856 455.979L467.496 395.244L466.754 394.023L465.922 393.613L415.078 368.447L412.317 361.375C411.513 359.337 410.117 357.587 408.31 356.349C406.502 355.111 404.366 354.441 402.176 354.427L368.683 354.291C366.944 354.283 365.229 354.689 363.68 355.477C362.13 356.265 360.791 357.411 359.773 358.819L350.704 371.379L290.711 409.846Z" fill="#091B29"/>
<path d="M326.816 486.654L319.23 502.887L314.051 513.975L305.142 560.621L300.682 565.355L296.86 548.596L256.862 557.477C255.55 550.187 256.511 557.723 255.701 549.727C255.929 549.499 256.169 549.27 256.408 549.042C257.047 548.449 257.583 547.89 257.572 547.354C257.116 519.77 258.485 472.828 269.915 444.388C271.705 439.745 274.066 435.342 276.942 431.281C277.17 430.973 277.387 430.665 277.604 430.357C282.874 422.976 286.205 415.709 290.928 410.542V410.53C290.957 410.507 290.984 410.48 291.008 410.451C291.025 410.442 291.04 410.43 291.053 410.416L323.497 393.214L324.889 432.319L325.881 460.427L326.816 486.654Z" fill="#091B29"/>
<path d="M443.801 491.264L453.277 511.539L456.585 518.6L465.492 565.242L469.937 569.965L473.768 553.209L475.568 552.84L508.026 546.118L517.487 576.164C519.619 572.611 520.459 568.431 519.865 564.33C519.271 560.23 517.278 556.46 514.225 553.658C513.579 553.074 513.041 552.505 513.056 551.966C513.595 519.523 511.61 460.283 493.689 435.9C487.997 428.163 484.582 420.456 479.613 415.072C479.598 415.056 479.598 415.041 479.583 415.041L467.491 395.243L466.753 394.027L465.922 393.612L443.801 491.264Z" fill="#091B29"/>
<path d="M386.397 344.759C411.005 344.759 430.955 324.809 430.955 300.201C430.955 275.592 411.005 255.642 386.397 255.642C361.788 255.642 341.838 275.592 341.838 300.201C341.838 324.809 361.788 344.759 386.397 344.759Z" fill="#FFB6B6"/>
<path d="M446.622 269.077C446.277 268.708 445.861 268.412 445.398 268.208C444.936 268.003 444.438 267.894 443.932 267.887L444.602 266.027C444.821 265.441 444.88 264.807 444.773 264.191C444.667 263.575 444.398 262.998 443.995 262.52C443.592 262.042 443.069 261.679 442.48 261.47C441.891 261.26 441.257 261.211 440.642 261.327L438.202 261.797L438.432 260.167C438.52 259.56 438.449 258.94 438.225 258.369C438.001 257.798 437.633 257.295 437.155 256.909C436.678 256.524 436.109 256.269 435.503 256.171C434.898 256.072 434.277 256.133 433.702 256.347C433.179 256.553 432.617 256.639 432.056 256.599C431.496 256.559 430.951 256.394 430.462 256.117C429.972 255.848 429.546 255.475 429.214 255.024C428.882 254.573 428.653 254.055 428.542 253.507L427.692 249.407L427.602 249.187C423.462 242.287 415.502 237.267 405.762 235.427C397.092 233.777 388.202 234.617 379.632 235.407C376.232 235.727 372.392 236.087 369.192 238.047C366.472 239.727 364.172 243.087 364.642 246.477C356.192 243.887 347.132 249.057 342.642 255.577C337.322 263.337 336.452 273.057 336.312 280.657C335.932 298.637 339.642 313.347 347.312 324.387C347.872 325.187 348.012 326.857 349.122 327.417L348.892 327.047C350.132 327.667 351.392 328.667 350.922 329.737C349.572 332.817 358.542 339.627 364.862 341.877C376.392 345.987 391.722 345.637 402.502 344.157L402.882 341.607C406.772 341.077 409.512 340.067 410.282 338.487C411.642 337.327 412.802 336.287 413.812 335.327L413.822 335.317C413.842 335.297 413.882 335.267 413.902 335.247C418.772 330.577 419.902 327.917 420.412 323.867C420.902 319.897 420.032 315.867 419.142 312.237C437.882 315.137 411.762 292.277 429.222 287.857C429.422 287.795 429.626 287.745 429.832 287.707C430.342 287.587 430.852 287.467 431.342 287.327C433.704 286.686 435.966 285.72 438.062 284.457C442.942 281.487 444.552 277.547 447.072 273.107C447.436 272.475 447.588 271.743 447.507 271.018C447.426 270.293 447.116 269.613 446.622 269.077V269.077Z" fill="#0E1E2C"/>
<path d="M543.992 494.437C543.982 496.187 543.962 498.637 543.882 501.667C543.872 502.087 543.862 502.517 543.852 502.957C543.722 508.527 543.592 513.197 543.382 518.387C543.372 518.747 543.362 519.097 543.342 519.457C543.062 526.697 542.622 535.127 541.862 548.477C540.452 573.137 537.992 551.867 535.522 560.517C535.402 560.947 535.272 561.457 535.152 562.057C534.778 564.234 534.147 566.359 533.272 568.387C531.962 569.167 530.612 569.917 529.282 570.667C525.492 572.777 521.642 574.807 517.762 576.737C515.582 577.817 513.392 578.877 511.192 579.897C510.842 580.057 510.502 580.217 510.162 580.367C498.896 585.578 487.286 590.008 475.412 593.627C473.092 594.327 470.782 595.007 468.442 595.637C466.002 596.317 463.562 596.957 461.092 597.557C442.717 602.068 423.915 604.612 405.002 605.147C402.452 605.227 399.882 605.257 397.302 605.257C396.022 605.257 394.762 605.247 393.482 605.237C393.092 605.237 392.702 605.227 392.312 605.217C391.182 605.187 390.012 605.167 388.832 605.137C366.011 604.425 343.376 600.785 321.482 594.307L320.552 594.037C319.112 593.597 317.682 593.167 316.252 592.707C309.652 590.617 303.149 588.277 296.742 585.687C291.852 583.717 287.019 581.603 282.242 579.347C282.199 579.335 282.158 579.315 282.122 579.287C281.122 578.827 280.112 578.347 279.112 577.857C278.982 577.787 278.842 577.717 278.702 577.647C274.972 575.827 271.282 573.92 267.632 571.927C264.562 564.877 260.242 563.527 257.562 557.327C256.782 555.485 256.218 553.559 255.882 551.587C255.882 551.567 255.872 551.547 255.872 551.517C256.152 555.237 254.682 544.917 255.862 551.477C255.852 551.357 255.842 551.227 255.832 551.077C255.802 550.717 255.762 550.277 255.702 549.727C252.272 516.237 252.492 477.937 251.002 446.377C250.902 444.337 250.799 442.383 250.692 440.517C250.662 439.897 250.622 439.287 250.582 438.687C250.652 438.507 250.732 438.317 250.822 438.137C250.841 438.085 250.865 438.035 250.892 437.987C250.922 437.925 250.955 437.865 250.992 437.807C251.012 437.777 251.042 437.737 251.062 437.707C251.077 437.672 251.094 437.639 251.112 437.607C251.202 437.467 251.302 437.317 251.412 437.177C251.462 437.117 251.502 437.067 251.552 437.017C251.587 436.966 251.627 436.919 251.672 436.877C251.703 436.829 251.74 436.785 251.782 436.747C251.822 436.707 251.862 436.657 251.912 436.607C251.934 436.575 251.961 436.548 251.992 436.527C252.071 436.436 252.158 436.352 252.252 436.277C252.609 435.949 252.99 435.648 253.392 435.377C253.532 435.287 253.682 435.197 253.822 435.097C254.83 434.494 255.891 433.985 256.992 433.577C257.372 433.437 257.752 433.307 258.162 433.167C258.312 433.127 258.452 433.077 258.602 433.027C258.822 432.957 259.042 432.887 259.272 432.837C260.412 432.497 261.642 432.207 262.972 431.937C263.132 431.907 263.302 431.877 263.472 431.837C263.712 431.787 263.962 431.747 264.212 431.707C264.552 431.647 264.902 431.587 265.252 431.527C268.222 431.057 271.592 430.707 275.312 430.477C275.662 430.457 276.012 430.437 276.362 430.417C276.772 430.397 277.182 430.377 277.602 430.357C277.952 430.337 278.312 430.327 278.672 430.317C279.022 430.297 279.382 430.287 279.752 430.277C280.762 430.247 281.802 430.217 282.862 430.197C285.882 430.137 289.062 430.157 292.402 430.227C293.952 430.267 295.532 430.307 297.152 430.377C297.262 430.377 297.362 430.387 297.462 430.387C298.872 430.437 300.292 430.497 301.752 430.577C302.772 430.627 303.802 430.677 304.832 430.737C305.802 430.797 306.782 430.857 307.772 430.927C308.542 430.967 309.312 431.027 310.092 431.077C310.752 431.127 311.412 431.177 312.072 431.217L312.972 431.277C313.462 431.317 313.952 431.347 314.452 431.397C315.552 431.487 316.652 431.577 317.772 431.667C318.882 431.767 320.012 431.867 321.142 431.967C322.272 432.067 323.412 432.177 324.552 432.287C324.672 432.297 324.782 432.307 324.892 432.317C325.932 432.427 326.972 432.527 328.022 432.637C328.262 432.657 328.512 432.677 328.752 432.707C329.753 432.807 330.774 432.925 331.784 433.032C332.094 433.066 332.403 433.098 332.714 433.132C333.505 433.218 334.285 433.293 335.082 433.387C336.132 433.507 337.202 433.617 338.242 433.757C339.052 433.847 339.862 433.937 340.672 434.037C341.942 434.187 343.232 434.347 344.522 434.517C345.012 434.577 345.502 434.637 345.992 434.707C349.672 435.167 353.392 435.677 357.172 436.207C362.902 437.017 368.722 437.897 374.582 438.847C380.452 439.797 386.356 440.8 392.292 441.857C393.792 442.127 395.292 442.397 396.802 442.677C397.482 442.807 398.162 442.937 398.842 443.067C400.002 443.277 401.162 443.497 402.322 443.717C403.482 443.937 404.642 444.157 405.802 444.387C407.182 444.657 408.572 444.927 409.952 445.197C419.042 446.997 428.082 448.917 436.902 450.927C438.352 451.257 439.802 451.597 441.242 451.927C444.122 452.597 446.975 453.277 449.802 453.967C450.582 454.147 451.352 454.337 452.122 454.527C454.042 455.007 455.962 455.487 457.852 455.977L458.182 456.067C459.572 456.407 460.932 456.757 462.292 457.117C465.502 457.957 468.659 458.807 471.762 459.667C473.822 460.237 475.859 460.813 477.872 461.397C480.882 462.267 483.832 463.147 486.702 464.037C487.412 464.257 488.122 464.477 488.822 464.687C490.922 465.337 492.992 465.997 495.002 466.657C496.602 467.177 498.162 467.707 499.702 468.237C501.242 468.767 502.752 469.297 504.232 469.827C505.182 470.167 506.122 470.527 507.062 470.867C508.412 471.367 509.742 471.867 511.042 472.367C511.442 472.517 511.832 472.677 512.222 472.827C512.472 472.937 512.712 473.027 512.952 473.127C513.422 473.317 513.902 473.497 514.362 473.687C514.832 473.867 515.292 474.057 515.752 474.257C516.202 474.437 516.662 474.627 517.102 474.817C517.552 474.997 517.992 475.187 518.432 475.387C518.802 475.537 519.162 475.697 519.512 475.857C520.222 476.167 520.932 476.477 521.622 476.797C521.962 476.957 522.302 477.107 522.642 477.267L523.422 477.627C523.532 477.687 523.642 477.737 523.752 477.787C524.002 477.907 524.262 478.037 524.512 478.157C525.092 478.427 525.662 478.717 526.222 478.987C526.972 479.367 527.702 479.747 528.402 480.117C529.112 480.497 529.802 480.877 530.462 481.247C530.572 481.307 530.672 481.367 530.782 481.427C530.932 481.507 531.082 481.597 531.232 481.677C531.742 481.967 532.232 482.267 532.722 482.557C533.682 483.147 534.592 483.727 535.442 484.307C535.632 484.437 535.812 484.567 536.002 484.687C536.632 485.137 537.232 485.577 537.792 486.027C537.792 486.037 537.792 486.037 537.802 486.037C537.992 486.177 538.172 486.327 538.352 486.467C538.502 486.607 538.662 486.727 538.812 486.867C539.332 487.317 539.812 487.747 540.252 488.187C540.4 488.322 540.54 488.466 540.672 488.617C540.73 488.665 540.784 488.718 540.832 488.777C541.032 488.977 541.212 489.177 541.382 489.377C541.408 489.404 541.432 489.434 541.452 489.467C541.692 489.747 541.912 490.027 542.122 490.307C542.222 490.447 542.332 490.587 542.422 490.727C542.542 490.897 542.662 491.077 542.762 491.247C542.852 491.387 542.932 491.537 543.012 491.677C543.224 492.037 543.405 492.415 543.552 492.807C543.665 493.072 543.755 493.346 543.822 493.627C543.898 493.892 543.955 494.163 543.992 494.437V494.437Z" fill="#0E1E2C"/>
<path opacity="0.2" d="M543.992 494.437C543.982 496.187 543.962 498.637 543.882 501.667C543.872 502.087 543.852 502.517 543.842 502.957C543.742 507.207 543.592 512.457 543.382 518.387C543.372 518.747 543.362 519.097 543.342 519.457C543.062 526.697 542.622 535.127 541.862 548.477C540.452 573.137 537.992 551.867 535.522 560.517C528.662 556.297 521.142 551.877 513.102 547.337C511.652 546.517 510.189 545.693 508.712 544.867C492.632 535.897 474.672 526.497 455.922 517.187C455.182 516.817 454.432 516.447 453.692 516.087C410.742 494.857 363.862 474.207 325.882 460.427C318.552 457.767 311.552 455.367 304.972 453.257C291.112 448.827 279.132 445.727 269.912 444.387C260.312 442.987 253.682 443.487 251.002 446.377C250.902 444.337 250.799 442.383 250.692 440.517C250.652 439.897 250.612 439.287 250.572 438.687C250.634 438.522 250.714 438.365 250.792 438.207C250.803 438.183 250.811 438.16 250.822 438.137C250.841 438.085 250.865 438.035 250.892 437.987C250.922 437.925 250.955 437.865 250.992 437.807C251.025 437.736 251.065 437.669 251.112 437.607C251.202 437.467 251.302 437.317 251.412 437.177C251.493 437.072 251.58 436.972 251.672 436.877C251.703 436.829 251.74 436.785 251.782 436.747C251.822 436.707 251.862 436.657 251.912 436.607C251.934 436.575 251.961 436.548 251.992 436.527C252.071 436.436 252.158 436.352 252.252 436.277C252.609 435.948 252.99 435.648 253.392 435.377C253.532 435.287 253.682 435.197 253.822 435.097C254.83 434.494 255.891 433.985 256.992 433.577C257.372 433.437 257.752 433.307 258.162 433.167C258.312 433.127 258.452 433.077 258.602 433.027C258.822 432.957 259.042 432.887 259.272 432.837C260.412 432.497 261.642 432.207 262.972 431.937C263.372 431.857 263.792 431.777 264.212 431.707C264.552 431.647 264.902 431.587 265.252 431.527C268.222 431.057 271.592 430.707 275.312 430.477C275.662 430.457 276.012 430.437 276.362 430.417C276.772 430.397 277.182 430.377 277.602 430.357C277.952 430.337 278.312 430.327 278.672 430.317C279.022 430.297 279.382 430.287 279.752 430.277C280.762 430.247 281.802 430.217 282.862 430.197C285.882 430.147 289.062 430.167 292.402 430.237C293.952 430.267 295.532 430.317 297.152 430.387C297.252 430.387 297.362 430.397 297.462 430.397C298.872 430.437 300.302 430.507 301.752 430.577C302.772 430.627 303.802 430.677 304.832 430.737C305.802 430.797 306.782 430.857 307.772 430.927C308.542 430.967 309.312 431.027 310.092 431.077C310.752 431.127 311.412 431.177 312.072 431.217C312.862 431.277 313.652 431.337 314.452 431.397C315.552 431.487 316.652 431.577 317.772 431.667C318.882 431.767 320.012 431.867 321.142 431.967C322.272 432.067 323.412 432.177 324.552 432.287C324.672 432.297 324.782 432.307 324.892 432.317C325.932 432.427 326.972 432.527 328.022 432.637C333.842 433.227 339.832 433.917 345.992 434.707C349.672 435.177 353.399 435.68 357.172 436.217C362.902 437.027 368.722 437.907 374.582 438.847C380.452 439.797 386.356 440.8 392.292 441.857C393.792 442.127 395.292 442.397 396.802 442.677C398.642 443.017 400.482 443.363 402.322 443.717C403.482 443.937 404.642 444.157 405.802 444.387C407.182 444.657 408.572 444.927 409.952 445.197C419.042 446.997 428.082 448.917 436.902 450.927C438.352 451.257 439.802 451.597 441.242 451.927C444.122 452.597 446.976 453.277 449.802 453.967C450.582 454.157 451.352 454.347 452.122 454.537C454.052 455.017 455.962 455.497 457.852 455.977V455.987C457.962 456.007 458.072 456.037 458.182 456.067C459.562 456.417 460.932 456.767 462.292 457.127C465.502 457.967 468.659 458.813 471.762 459.667C473.822 460.247 475.862 460.817 477.872 461.397C480.882 462.277 483.832 463.157 486.702 464.037C487.412 464.257 488.122 464.477 488.822 464.687C490.922 465.347 492.982 466.003 495.002 466.657C496.602 467.177 498.162 467.707 499.702 468.237C501.242 468.767 502.752 469.297 504.232 469.827C505.192 470.167 506.132 470.517 507.062 470.857C508.422 471.357 509.742 471.857 511.042 472.367C511.442 472.517 511.832 472.677 512.222 472.827C512.952 473.107 513.662 473.397 514.362 473.687C514.832 473.867 515.292 474.057 515.752 474.257C516.202 474.437 516.662 474.627 517.102 474.817C517.552 474.997 517.992 475.187 518.432 475.387C518.802 475.537 519.162 475.697 519.512 475.857C520.222 476.167 520.932 476.477 521.622 476.797C521.962 476.957 522.302 477.107 522.642 477.267L523.422 477.627C523.532 477.687 523.642 477.737 523.752 477.787C524.602 478.187 525.422 478.587 526.222 478.987C526.972 479.367 527.702 479.747 528.402 480.117C529.232 480.557 530.022 480.987 530.782 481.427C530.932 481.507 531.082 481.597 531.232 481.677C531.742 481.967 532.232 482.267 532.722 482.557C533.682 483.147 534.592 483.727 535.442 484.307C536.282 484.887 537.062 485.457 537.792 486.027C537.792 486.037 537.792 486.037 537.802 486.037C538.152 486.317 538.492 486.597 538.812 486.867C539.332 487.317 539.812 487.747 540.252 488.187C540.4 488.322 540.54 488.466 540.672 488.617C540.73 488.665 540.784 488.718 540.832 488.777C541.042 489.007 541.252 489.237 541.452 489.467C541.692 489.747 541.912 490.027 542.122 490.307C542.222 490.447 542.332 490.587 542.422 490.727C542.542 490.897 542.662 491.077 542.762 491.247C542.852 491.387 542.932 491.537 543.012 491.677C543.225 492.037 543.405 492.415 543.552 492.807C543.662 493.073 543.752 493.347 543.822 493.627C543.898 493.892 543.955 494.163 543.992 494.437V494.437Z" fill="black"/>
<g filter="url(#filter0_f_2_398)">
<path d="M455.701 133.402C470.447 133.402 482.402 121.447 482.402 106.701C482.402 91.9543 470.447 80 455.701 80C440.954 80 429 91.9543 429 106.701C429 121.447 440.954 133.402 455.701 133.402Z" fill="white"/>
</g>
</g>
<defs>
<filter id="filter0_f_2_398" x="349" y="0" width="213.401" height="213.401" filterUnits="userSpaceOnUse" color-interpolation-filters="sRGB">
<feFlood flood-opacity="0" result="BackgroundImageFix"/>
<feBlend mode="normal" in="SourceGraphic" in2="BackgroundImageFix" result="shape"/>
<feGaussianBlur stdDeviation="40" result="effect1_foregroundBlur_2_398"/>
</filter>
<clipPath id="clip0_2_398">
<rect width="787" height="605" fill="white"/>
</clipPath>
</defs>
</svg>
