<svg width="1846" height="442" viewBox="0 0 1846 442" fill="none" xmlns="http://www.w3.org/2000/svg">
<rect x="243" y="14" width="390.797" height="413.733" rx="72" fill="#E9E7E7"/>
<path d="M403.097 164.448C406.716 168.209 400.441 329.941 400.441 337.464C400.441 344.986 474.583 344.986 474.583 337.464C474.583 329.941 473.621 168.209 478.202 164.448C482.783 160.687 489.95 155.779 501.759 153.165C518.344 149.492 547.837 156.926 551.455 156.926C555.074 156.926 548.799 96.7465 541.562 96.7465H335.308C328.071 96.7465 319.872 156.926 323.49 156.926C327.109 156.926 359.675 149.403 377.768 153.165C395.86 156.926 399.479 160.687 403.097 164.448Z" fill="#4B2589"/>
<path d="M724.648 312V175.375C724.648 171.292 725.398 168.25 726.898 166.25C728.398 164.167 730.69 162.833 733.773 162.25H679.023V130.25H805.148V162.25H759.773V312H724.648ZM862.438 313.875C848.938 313.875 837.354 311.167 827.688 305.75C818.021 300.25 810.604 292.292 805.438 281.875C800.271 271.375 797.688 258.625 797.688 243.625C797.688 228.458 800.396 215.625 805.813 205.125C811.313 194.625 818.938 186.625 828.688 181.125C838.521 175.625 849.938 172.875 862.938 172.875C875.604 172.875 886.313 175.333 895.063 180.25C903.896 185.083 910.604 192.292 915.187 201.875C919.771 211.375 922.063 223.042 922.063 236.875C922.063 239.125 921.979 241.25 921.813 243.25C921.729 245.25 921.604 247.625 921.438 250.375H831.688C832.521 262.875 835.563 272.042 840.813 277.875C846.146 283.708 853.063 286.625 861.563 286.625C869.063 286.625 874.771 285 878.688 281.75C882.604 278.5 885.063 274.542 886.063 269.875H919.188C918.438 278.958 915.604 286.833 910.688 293.5C905.854 300.083 899.313 305.125 891.063 308.625C882.896 312.125 873.354 313.875 862.438 313.875ZM846.438 229.25H888.438C888.104 219.917 885.813 212.833 881.563 208C877.396 203.167 870.729 200.75 861.563 200.75C851.479 200.75 844.021 204.25 839.188 211.25C834.438 218.167 831.854 227.917 831.438 240.5C832.104 236.167 833.646 233.208 836.063 231.625C838.479 230.042 841.938 229.25 846.438 229.25ZM947.324 312V175.5H981.824L981.699 312H947.324ZM964.699 157.75C958.699 157.75 953.616 155.667 949.449 151.5C945.283 147.333 943.199 142 943.199 135.5C943.199 129 945.283 123.708 949.449 119.625C953.699 115.458 958.783 113.375 964.699 113.375C970.616 113.375 975.658 115.458 979.824 119.625C984.074 123.708 986.199 129 986.199 135.5C986.199 142 984.074 147.333 979.824 151.5C975.658 155.667 970.616 157.75 964.699 157.75ZM1001.79 312L1049.92 232.125L1050.29 257.375L1003.17 175.625H1042.79L1058.79 208.75L1066.79 227.125L1073.17 209L1088.54 175.625H1127.92L1080.67 257.375L1080.79 232L1129.17 312H1088.54L1072.17 279.5L1063.92 262.125L1057.42 279.875L1041.79 312H1001.79ZM1201.55 313.875C1188.05 313.875 1176.47 311.167 1166.8 305.75C1157.13 300.25 1149.72 292.292 1144.55 281.875C1139.38 271.375 1136.8 258.625 1136.8 243.625C1136.8 228.458 1139.51 215.625 1144.92 205.125C1150.42 194.625 1158.05 186.625 1167.8 181.125C1177.63 175.625 1189.05 172.875 1202.05 172.875C1214.72 172.875 1225.42 175.333 1234.17 180.25C1243.01 185.083 1249.72 192.292 1254.3 201.875C1258.88 211.375 1261.17 223.042 1261.17 236.875C1261.17 239.125 1261.09 241.25 1260.92 243.25C1260.84 245.25 1260.72 247.625 1260.55 250.375H1170.8C1171.63 262.875 1174.67 272.042 1179.92 277.875C1185.26 283.708 1192.17 286.625 1200.67 286.625C1208.17 286.625 1213.88 285 1217.8 281.75C1221.72 278.5 1224.17 274.542 1225.17 269.875H1258.3C1257.55 278.958 1254.72 286.833 1249.8 293.5C1244.97 300.083 1238.42 305.125 1230.17 308.625C1222.01 312.125 1212.47 313.875 1201.55 313.875ZM1185.55 229.25H1227.55C1227.22 219.917 1224.92 212.833 1220.67 208C1216.51 203.167 1209.84 200.75 1200.67 200.75C1190.59 200.75 1183.13 204.25 1178.3 211.25C1173.55 218.167 1170.97 227.917 1170.55 240.5C1171.22 236.167 1172.76 233.208 1175.17 231.625C1177.59 230.042 1181.05 229.25 1185.55 229.25ZM1286.44 312V175.5H1320.94L1320.81 312H1286.44ZM1303.81 157.75C1297.81 157.75 1292.73 155.667 1288.56 151.5C1284.39 147.333 1282.31 142 1282.31 135.5C1282.31 129 1284.39 123.708 1288.56 119.625C1292.81 115.458 1297.89 113.375 1303.81 113.375C1309.73 113.375 1314.77 115.458 1318.94 119.625C1323.19 123.708 1325.31 129 1325.31 135.5C1325.31 142 1323.19 147.333 1318.94 151.5C1314.77 155.667 1309.73 157.75 1303.81 157.75ZM1355.53 312V175.5H1385.9L1389.15 228.625L1386.65 220.875C1387.4 214.458 1388.65 208.375 1390.4 202.625C1392.24 196.875 1394.69 191.75 1397.78 187.25C1400.94 182.75 1404.82 179.208 1409.4 176.625C1414.07 174.042 1419.53 172.75 1425.78 172.75C1427.44 172.75 1429.11 172.833 1430.78 173C1432.53 173.167 1434.07 173.458 1435.4 173.875V210.125C1432.57 209.292 1429.69 208.75 1426.78 208.5C1423.94 208.167 1421.19 208 1418.53 208C1414.61 208 1410.78 208.542 1407.03 209.625C1403.28 210.625 1399.94 212.208 1397.03 214.375C1394.11 216.458 1391.82 219.083 1390.15 222.25V312H1355.53ZM1490.72 313.5C1482.72 313.5 1475.51 312 1469.1 309C1462.76 306 1457.76 301.667 1454.1 296C1450.51 290.333 1448.72 283.625 1448.72 275.875C1448.72 267.708 1450.3 261 1453.47 255.75C1456.64 250.417 1461.05 246.208 1466.72 243.125C1472.39 239.958 1478.93 237.625 1486.35 236.125C1491.51 235.042 1496.85 234.167 1502.35 233.5C1507.93 232.75 1513.14 232.167 1517.97 231.75C1522.8 231.333 1526.72 231 1529.72 230.75V226.125C1529.72 217.208 1528.1 210.75 1524.85 206.75C1521.6 202.667 1516.01 200.625 1508.1 200.625C1503.01 200.625 1498.72 201.292 1495.22 202.625C1491.8 203.958 1489.22 206.375 1487.47 209.875C1485.72 213.375 1484.85 218.417 1484.85 225H1452.6C1451.68 213.083 1453.47 203.292 1457.97 195.625C1462.55 187.958 1469.26 182.292 1478.1 178.625C1487.01 174.875 1497.47 173 1509.47 173C1516.55 173 1523.3 173.792 1529.72 175.375C1536.22 176.875 1541.97 179.5 1546.97 183.25C1552.05 186.917 1556.05 191.958 1558.97 198.375C1561.97 204.792 1563.47 212.917 1563.47 222.75V312H1529.47L1529.72 280.75C1528.22 289.917 1524.39 297.667 1518.22 304C1512.05 310.333 1502.89 313.5 1490.72 313.5ZM1501.22 289.375C1505.47 289.375 1509.6 288.625 1513.6 287.125C1517.68 285.542 1521.18 283.375 1524.1 280.625C1527.1 277.875 1528.97 274.708 1529.72 271.125V248C1526.39 248.5 1522.76 249.083 1518.85 249.75C1514.93 250.417 1511.51 251.083 1508.6 251.75C1499.76 253.583 1493.55 256.125 1489.97 259.375C1486.47 262.542 1484.72 267 1484.72 272.75C1484.72 276.167 1485.39 279.125 1486.72 281.625C1488.14 284.125 1490.1 286.042 1492.6 287.375C1495.18 288.708 1498.05 289.375 1501.22 289.375Z" fill="white"/>
</svg>
